<?xml version="1.0" encoding="UTF-8"?>
<svg id="Layer_2" data-name="Layer 2" xmlns="http://www.w3.org/2000/svg" xmlns:xlink="http://www.w3.org/1999/xlink" viewBox="0 0 123.71 123.71">
  <defs>
    <style>
      .cls-1 {
        fill: #3c3575;
      }

      .cls-2 {
        fill: #bb4d9b;
      }

      .cls-3 {
        fill: #e6a2b5;
      }

      .cls-4 {
        fill: #6f84f0;
      }

      .cls-5 {
        fill: #eb9481;
      }

      .cls-6, .cls-7 {
        fill: #f2e0d8;
      }

      .cls-8 {
        clip-path: url(#clippath);
      }

      .cls-9 {
        fill: none;
      }

      .cls-7 {
        fill-rule: evenodd;
        opacity: .2;
      }
    </style>
    <clipPath id="clippath">
      <circle class="cls-9" cx="61.85" cy="61.85" r="61.85"/>
    </clipPath>
  </defs>
  <g id="OBJECTS">
    <g>
      <circle class="cls-6" cx="61.85" cy="61.85" r="61.85"/>
      <g class="cls-8">
        <g>
          <g>
            <g>
              <path class="cls-1" d="m72.32,58.7c5.81-1.38,20.87,2.56,26.01,10.26,5.14,7.7,4.91,20.3,2.34,21.57-2.57,1.27-13.68.49-21.36-3.6-7.68-4.09-9.85-27.55-6.98-28.23Z"/>
              <path class="cls-1" d="m72.3,58.74c-.2-.04-.22-.36,0-.37,5.1-.21,10.59,1.43,15.48,2.76,3.94,1.07,7.99,2.35,11.2,4.97,3.21,2.62,4.93,6.13,5.14,10.26.23,4.5-.33,9.95-2.48,13.97-.06.12-.29.09-.25-.07,2.22-8.54,4.12-18.95-4.42-24.62-7.25-4.81-16.43-5.24-24.68-6.9Z"/>
            </g>
            <g>
              <path class="cls-1" d="m99.79,88.32c5.11.58,18.51,10.08,20.88,19.74,2.37,9.66-5.28,24.11-7.76,25.19-2.48,1.08-13.89-8.05-17.67-14.81-2.52-4.52-.67-9.87.37-15.18,1.52-7.83,3.39-15.03,4.19-14.94Z"/>
              <path class="cls-1" d="m92.16,117.27c-1.67-9.86,3.78-19.73,7.01-28.7.03-.09.19-.05.17.05-1.73,8.59-6.77,16.36-6.77,25.31,0,5.32,1.93,10.5,6.36,13.69,3.84,2.77,8.63,3.98,13.05,5.48.29.1.11.53-.18.44-8.82-2.73-17.91-6.1-19.63-16.27Z"/>
              <path class="cls-1" d="m100.9,89.22c-.26-.12-.09-.53.17-.41,7.3,3.32,16.11,8.2,20.1,15.48,4.33,7.89.24,16.29-3.39,23.52-.05.09-.19.03-.15-.06,3.58-7.35,7.34-16.45,2.44-24.13-4.21-6.6-12.28-11.15-19.17-14.4Z"/>
            </g>
            <g>
              <path class="cls-4" d="m76.7,53.29c1.59-2.08,4.79.43,3.2,2.51-1.59,2.08-4.79-.43-3.2-2.51Z"/>
              <path class="cls-4" d="m75.18,56.75c1.59-2.08,4.79.43,3.2,2.51-1.59,2.08-4.79-.42-3.2-2.51Z"/>
              <path class="cls-4" d="m73.06,59.93c1.59-2.08,4.79.43,3.2,2.51-1.59,2.08-4.79-.43-3.2-2.51Z"/>
              <path class="cls-4" d="m70.61,62.73c1.59-2.08,4.79.43,3.2,2.51-1.59,2.08-4.79-.42-3.2-2.51Z"/>
              <path class="cls-4" d="m67.66,65.11c1.59-2.08,4.79.42,3.2,2.51-1.59,2.08-4.79-.43-3.2-2.51Z"/>
              <path class="cls-4" d="m64.44,66.86c1.59-2.08,4.79.43,3.2,2.51-1.59,2.08-4.79-.43-3.2-2.51Z"/>
            </g>
          </g>
          <g>
            <g>
              <g>
                <path class="cls-5" d="m43.43,95.13C17.22,124.62-14.53,185.45-7.41,197.07c7.92,12.95,45.75-29.05,44.45-30.95-1.1-1.62,11.19-38,20.12-64.61,8.92-26.58-7.23-13.68-13.72-6.38Z"/>
                <g>
                  <path class="cls-2" d="m43.43,95.13C17.22,124.62-14.53,185.45-7.41,197.07c7.92,12.95,45.75-29.05,44.45-30.95-1.1-1.62,11.19-38,20.12-64.61,8.92-26.58-7.23-13.68-13.72-6.38Z"/>
                  <g>
                    <path class="cls-7" d="m45.32,118.46c-.32,1.64-.7,2.93-1.07,3.35-.53.59-2.3,1.02-4.26,1.13-2.3.13-4.84-.17-5.88-1.13-1.5-1.39-2.73-8.49-1.88-12.67.78-1.07,1.57-2.13,2.35-3.17,3.01-.83,9.62.4,10.81,2.41.92,1.56.59,6.6-.07,10.08Z"/>
                    <path class="cls-7" d="m50.41,121.64c-1.07,3.2-2.13,6.39-3.16,9.51-1.94.32-4.68.2-5.66-.71-.9-.84-1.68-4.48-1.6-7.5.03-1.8.37-3.38,1.17-4.02.71-.56,2.42-.67,4.16-.46,2.07.26,4.19.97,4.74,1.9.17.29.28.73.35,1.28Z"/>
                  </g>
                </g>
              </g>
              <g>
                <path class="cls-2" d="m18.14,210.52l6.58-44.61s-10.55-18.43-4.43-31.65c3.09-6.7,24.28-39.43,35.7-47.72,10.71-7.77,25.38-.68,30.37,6.08,14.35,19.44,21.34,54.44,29.35,117.9H18.14Z"/>
                <g>
                  <path class="cls-7" d="m45.32,118.46c-.32,1.64-.7,2.93-1.07,3.35-.53.59-2.3,1.02-4.26,1.13-2.3.13-4.84-.17-5.88-1.13-.88-.81-1.67-3.6-2-6.61,2.11-3.09,4.37-6.28,6.67-9.39,2.84.31,5.85,1.28,6.61,2.57.92,1.56.59,6.6-.07,10.08Z"/>
                  <path class="cls-7" d="m41.16,118.91c-2.14,1.69-1.02,10.18.43,11.52,1.45,1.34,6.75.96,7.61,0,.86-.96,1.88-8.36.86-10.07-1.02-1.71-7.34-2.68-8.89-1.45Z"/>
                  <path class="cls-7" d="m94.68,109.17c-1.43-1.81-8.61-.86-9.74.36-1.13,1.22-.82,5.71,0,6.43.82.72,7.07,1.59,8.51.72,1.45-.86,2.26-6.2,1.22-7.52Z"/>
                  <path class="cls-7" d="m84.45,134.91c5.41-2.84,6.49-21.96,3.87-25.51-2.62-3.55-14.44-4.94-16.73-3.18s-7.61,17.6-6.09,21.79c1.52,4.2,15.02,8.95,18.95,6.89Z"/>
                  <path class="cls-7" d="m65.93,99.4c-2.22,2.1-1.09,9.72.47,11.2,1.56,1.48,6.74,1.17,8.06.08,1.32-1.09,2.09-8.48.26-10.89-.97-1.28-6.77-2.31-8.79-.39Z"/>
                </g>
                <path class="cls-1" d="m37.35,107.11c-2.17,2.97-4.27,5.99-6.34,9.03.56-1.18,1.13-2.37,1.69-3.55.04-.09-.09-.16-.13-.07-.77,1.49-1.48,3-2.17,4.51-2.76,4.09-5.45,8.24-8.03,12.44-1.1,1.78-2.11,3.6-2.85,5.56-.72,1.9-1.16,3.9-1.4,5.92-.24,2.02-.25,4.05-.1,6.07.16,2.09.41,4.15.88,6.2.53,2.3,1.25,4.6,2.18,6.77.46,1.07.95,2.13,1.47,3.16.48.94,1.46,2.88,1.45,2.95-.2,1.07-.4,1.82-.53,2.72-.14.92-.28,1.83-.41,2.75-.28,1.83-2.65,19.65-2.92,21.48-.53,3.64-.99,7.28-1.44,10.93-.26,2.09-.4,4.21-.69,6.29-.01.08.12.12.13.03.3-1.82.75-3.61,1.08-5.43.33-1.82.67-3.63,1.01-5.45.69-3.67,3.34-23.36,3.91-27.04.16-1.02.32-2.04.48-3.06.16-1.01.43-2.38.39-3.4,0,0-3.27-6.71-4.54-11.42-.53-1.98-1.08-4.03-1.3-6.07-.22-2-.24-4.02-.07-6.03.16-2.01.54-4,1.16-5.92.63-1.98,1.55-3.82,2.56-5.63,2.13-3.79,4.4-7.51,6.7-11.2,2.61-4.19,5.24-8.36,7.94-12.48.05-.07-.06-.13-.11-.06Z"/>
              </g>
              <g>
                <path class="cls-5" d="m93.39,101.86c28.25,35.95,38.91,100.54,23.23,105.57-14.33,4.6-73.26-10.15-90.81-16.11-5.16-1.75,10.77-41.84,16.28-39.97,6.67,2.26,43.11,10.89,43.82,10.91,1.51.03-6.58-39.73-10.06-57.75-4.84-25.1,6.93-16.15,17.54-2.65Z"/>
                <g>
                  <path class="cls-2" d="m85.38,160.63c.46-.27-8.01-38.65-10.85-58.68-2.84-20.03,6.11-18.1,18.98-.98,13.79,18.34,38.33,67.98,29.83,104.74-2.75,11.9-88.03-4.77-88.03-4.77l11.49-49.02s37.88,9.13,38.59,8.7Z"/>
                  <g>
                    <path class="cls-7" d="m94.68,109.17c-1.43-1.81-8.61-.86-9.74.36-1.13,1.22-.82,5.71,0,6.43.82.72,7.07,1.59,8.51.72,1.45-.86,2.26-6.2,1.22-7.52Z"/>
                    <path class="cls-7" d="m89.68,116.98c.06,6.92-1.63,16.04-5.23,17.93-.89.47-2.28.59-3.91.44-1.79-9.01-3.7-18.95-5.06-27.23h0c-.15-.91-.29-1.79-.42-2.64.23-.01.47-.01.72-.01,3.88.04,9.2,1.13,11.68,3.07.35.27.64.56.86.86.87,1.18,1.33,4.11,1.36,7.58Z"/>
                    <path class="cls-7" d="m75.78,105.47c-.04.93-.14,1.84-.3,2.64-.15-.9-.29-1.78-.42-2.63-.19-1.23-.37-2.41-.53-3.53-.13-.91-.23-1.77-.32-2.58.23.13.4.27.51.42.88,1.16,1.16,3.47,1.06,5.68Z"/>
                  </g>
                  <path class="cls-1" d="m84.96,161.02c.03-.08-6.16-30.2-6.67-31.11-.53-.95-1.67-3.06-2.14-4.05-.94-1.99-1.76-4.02-2.63-6.03-.07-.17.18-.29.25-.13.94,1.95,2.04,3.81,3.16,5.65.55.9,1.11,1.82,1.66,2.71.04.06-2.68-14.36-3.06-16.89-.03-.19.17-.24.23-.08.82,2.55,9.82,46.85,10.6,50.05,0,0-.54,0-1.4-.13Z"/>
                </g>
              </g>
            </g>
            <g>
              <g>
                <path class="cls-3" d="m59.35,86.13c0,1.41-1.14,2.55-2.55,2.55s-2.55-1.14-2.55-2.55,1.14-2.55,2.55-2.55,2.55,1.14,2.55,2.55Z"/>
                <path class="cls-3" d="m58.5,90.73c0,1.41-1.14,2.55-2.55,2.55s-2.55-1.14-2.55-2.55,1.14-2.55,2.55-2.55,2.55,1.14,2.55,2.55Z"/>
                <path class="cls-3" d="m58.98,95.56c0,1.41-1.14,2.55-2.55,2.55s-2.55-1.14-2.55-2.55,1.14-2.55,2.55-2.55,2.55,1.14,2.55,2.55Z"/>
                <path class="cls-3" d="m61.44,99.93c0,1.41-1.14,2.55-2.55,2.55s-2.55-1.14-2.55-2.55,1.14-2.55,2.55-2.55,2.55,1.14,2.55,2.55Z"/>
                <path class="cls-3" d="m65.87,98.82c0,1.41-1.14,2.55-2.55,2.55s-2.55-1.14-2.55-2.55,1.14-2.55,2.55-2.55,2.55,1.14,2.55,2.55Z"/>
                <path class="cls-3" d="m70.41,96.66c0,1.41-1.14,2.55-2.55,2.55s-2.55-1.14-2.55-2.55,1.14-2.55,2.55-2.55,2.55,1.14,2.55,2.55Z"/>
                <circle class="cls-3" cx="71.52" cy="93.28" r="2.55"/>
                <circle class="cls-3" cx="74.96" cy="89.68" r="2.55"/>
                <path class="cls-3" d="m79.17,85.77c0,1.41-1.14,2.55-2.55,2.55s-2.55-1.14-2.55-2.55,1.14-2.55,2.55-2.55,2.55,1.14,2.55,2.55Z"/>
              </g>
              <g>
                <g>
                  <path class="cls-5" d="m75.89,86.96c-.5,1.69-9.33,12.37-17.16,11.55-2.55-.27-1.69-14.25-1.69-14.25l-.17-1.05-2.41-14.65,17.61-9.93,2.54-1.3s.39,4.05.84,9.1c.02.23.04.47.06.72.03.28.07.55.08.82.08.75.15,1.52.21,2.29.05.58.09,1.15.12,1.77.04.62.07,1.22.11,1.83.28,6.09.07,12.37-.14,13.09Z"/>
                  <path class="cls-1" d="m75.44,66.44c-4.8,11.27-14.26,15.44-18.57,16.78l-2.41-14.65,17.61-9.93,2.54-1.3s.39,4.05.84,9.1Z"/>
                </g>
                <g>
                  <path class="cls-5" d="m35.03,48.15c-1.74,25.99,13.63,29.97,19.24,30.34,5.09.34,22.46.83,26.87-24.84,4.42-25.67-7.12-34.7-18.72-36.08-11.6-1.38-25.65,4.59-27.39,30.59Z"/>
                  <g>
                    <path class="cls-1" d="m42.93,41.54c.61-.05,1.17-.2,1.77-.31.68-.12,1.23-.15,1.75-.66.28-.27.28-.84.04-1.13-.55-.68-1.42-.74-2.24-.62-.89.13-1.55.45-2.16,1.12-.59.64.03,1.66.84,1.6Z"/>
                    <path class="cls-1" d="m60.98,43.33c-.61-.08-1.16-.26-1.75-.41-.67-.16-1.22-.22-1.71-.75-.26-.28-.23-.85.02-1.13.59-.65,1.46-.66,2.28-.49.89.18,1.52.54,2.1,1.24.56.67-.13,1.66-.93,1.55Z"/>
                    <g>
                      <g>
                        <path class="cls-1" d="m56.95,49.46c.02-.07.13.09.13.16-.13,1.77.01,3.82,1.59,4.48.05.02.04.11-.02.1-1.94-.36-2.11-3.08-1.7-4.74Z"/>
                        <path class="cls-1" d="m58.61,47.68c2.86-.09,2.84,5.63.19,5.72-2.61.09-2.58-5.64-.19-5.72Z"/>
                      </g>
                      <path class="cls-1" d="m59.73,47.99c.5.33.99.9,1.59.96.7.07,1.23-.53,1.69-1.1.05-.06.1,0,.1.07.01,1.1-.41,2.22-1.59,2.38-1.07.14-1.84-.83-2.11-1.93-.05-.2.13-.51.33-.37Z"/>
                    </g>
                    <g>
                      <g>
                        <path class="cls-1" d="m46.12,48.15c-.01-.07-.14.08-.14.15.03,1.77-.23,3.81-1.84,4.38-.05.02-.05.11.01.1,1.96-.25,2.28-2.96,1.97-4.63Z"/>
                        <path class="cls-1" d="m44.56,46.28c-2.85-.25-3.15,5.46-.51,5.7,2.6.23,2.9-5.49.51-5.7Z"/>
                      </g>
                      <path class="cls-1" d="m43.35,46.59c-.47.28-.94.81-1.48.81-.63,0-1.06-.63-1.43-1.25-.04-.06-.09-.02-.09.06-.09,1.09.21,2.25,1.25,2.51.95.24,1.7-.66,2.02-1.73.06-.2-.08-.51-.27-.4Z"/>
                    </g>
                    <path class="cls-1" d="m55.2,63.22c-.41.43-.81,1.02-1.45,1.1-.61.08-1.35-.17-1.92-.37-.06-.02-.11.04-.07.09.49.66,1.47,1.05,2.29.87.8-.17,1.16-.88,1.33-1.62.02-.1-.11-.14-.17-.07Z"/>
                    <path class="cls-1" d="m47.88,56.69s-.41,2.64-.43,3.89c0,.12.3.18.72.21.02,0,.03.01.05,0,2.2.38,4.43-.35,5.8-2.13.09-.12-.07-.25-.18-.18-1.67,1.18-3.49,1.47-5.45,1.47-.08-.35.85-4.5.65-4.52-.68-.07-2.03.37-2.85.6.69-5.53,2.26-10.9,2.87-16.42.02-.2-.26-.26-.32-.09-2.04,5.52-2.98,11.86-3.84,17.56-.11.71,2.47-.19,2.98-.39Z"/>
                    <g>
                      <path class="cls-1" d="m48.58,60.32s1.09,1.68,2.68,2.36c.59.25,1.23.38,1.91.24,1.41-.28,1.53-1.55,1.34-2.66-.15-.91-.52-1.71-.52-1.71,0,0-2.15,1.77-5.41,1.78Z"/>
                      <path class="cls-3" d="m51.26,62.68c.59.25,1.23.38,1.91.24,1.41-.28,1.53-1.55,1.34-2.66-1.5.06-3.04.98-3.25,2.42Z"/>
                    </g>
                  </g>
                  <path class="cls-1" d="m80.28,53.74c-4.25.45-5.48-8.46-5.48-8.46,0,0-8.66.27-11.86-12.11,0,0,.35,5.79,4.12,10.19,0,0-15.32-1.2-22.1-13.8,0,0,2.75,6.44,5.21,8.69,0,0-6.45-1.61-9.72-6.72,0,0-2.47,7.45-4.47,9.55,0,0-.11-26.74,24.72-24.58,0,0,15.53.6,21.44,12.71,5.91,12.12-1.86,24.54-1.86,24.54Z"/>
                  <g>
                    <g>
                      <path class="cls-5" d="m75.98,54.82s5.52-8.24,9.25-6.29c3.73,1.95-.31,13.82-4.61,15.52-4.3,1.7-5.95-2.25-5.95-2.25l1.31-6.98Z"/>
                      <path class="cls-1" d="m83.99,51.9c.07,0,.08.09.03.12-3.01,1.29-4.56,4.14-5.62,7.08.88-1.14,2.1-1.78,3.63-.74.08.05,0,.18-.08.16-1.25-.24-2.14,0-2.96,1-.58.72-.97,1.62-1.38,2.44-.14.27-.63.14-.53-.18,0-.02.02-.05.02-.07-.15-3.87,2.75-9.35,6.9-9.82Z"/>
                    </g>
                    <circle class="cls-6" cx="79.75" cy="63.9" r="2.11"/>
                  </g>
                </g>
              </g>
            </g>
          </g>
        </g>
      </g>
    </g>
  </g>
</svg>