<?xml version="1.0" encoding="UTF-8"?>
<svg id="Layer_2" data-name="Layer 2" xmlns="http://www.w3.org/2000/svg" xmlns:xlink="http://www.w3.org/1999/xlink" viewBox="0 0 123.71 123.71">
  <defs>
    <style>
      .cls-1 {
        fill: #3c3575;
      }

      .cls-2 {
        fill: #bb4d9b;
      }

      .cls-3 {
        fill: #6f84f0;
      }

      .cls-4 {
        fill: #f2e0d8;
      }

      .cls-5 {
        clip-path: url(#clippath);
      }

      .cls-6 {
        fill: none;
      }

      .cls-7 {
        fill: #f7a9a0;
      }
    </style>
    <clipPath id="clippath">
      <circle class="cls-6" cx="61.85" cy="61.85" r="61.85"/>
    </clipPath>
  </defs>
  <g id="OBJECTS">
    <g>
      <circle class="cls-4" cx="61.85" cy="61.85" r="61.85"/>
      <g class="cls-5">
        <g>
          <path class="cls-1" d="m36.65,59.09c-.54,5.53-1.09,11.08-1.42,16.63-.2,3.39-.19,6.75-.08,10.12,1,1.17,2.21,2.31,3.67,3.38-.04-.86-.06-1.71-.09-2.54-.14-4.03.05-8.01.28-12.02,0-.14.19-.1.18.04-.1,4.13.08,8.32.31,12.45.05.9.12,1.8.21,2.7,1.17.79,2.49,1.55,3.97,2.26-.08-.99-.14-1.98-.2-2.94-.15-2.28-.26-4.57-.3-6.86-.08-4.52.09-9.01.48-13.49.01-.19.25-.13.25.05-.13,4.62-.11,9.27.05,13.9.08,2.19.18,4.39.34,6.58.08,1.05.18,2.1.29,3.16,2.22.98,4.79,1.86,7.77,2.58,7.58,1.85,15.65.88,23.11-1.08,6.38-1.68,12.54-4.79,17.63-9.65-2.09-3.31-3.64-7.24-4.74-10.96-.03-.13.11-.19.16-.07,1.06,2.44,2.21,4.81,3.45,7.14.58,1.09,1.21,2.15,1.84,3.2.08-.08.15-.15.22-.23.49-.49,1-1.02,1.5-1.59-1.23-2.17-2.26-4.53-3.24-6.82-1.42-3.29-2.64-6.64-3.51-10.15-.06-.23.21-.35.3-.13,1.35,3.22,2.61,6.47,4,9.66.98,2.25,2.09,4.43,3.12,6.65,1.44-1.79,2.61-3.93,2.41-6.5-.17-2.12-1.17-4-2-5.84-.94-2.07-1.77-4.19-2.51-6.36-1.53-4.46-2.64-9.11-3.3-13.83-.61-4.38-.56-8.83-1.24-13.19-.58-3.75-1.93-7.19-4.48-9.63-2.17-2.07-4.77-3.27-7.44-3.9-.05-.11-13.79-12.28-30.39-3.49-13.55,7.17-16.98,52.57-16.52,57.08.28,2.66,1.13,5.94,3.43,9.13-.08-2.85.04-5.7.2-8.47.34-5.75,1.18-11.39,2.06-17.05.03-.18.27-.13.25.05Z"/>
          <g>
            <g>
              <path class="cls-7" d="m43.24,95.43C17.02,124.93-14.72,185.75-7.61,197.38c7.92,12.95,45.75-29.05,44.45-30.95-1.1-1.62,11.19-38,20.12-64.61,8.92-26.58-7.23-13.68-13.72-6.38Z"/>
              <g>
                <path class="cls-2" d="m43.24,95.43C17.02,124.93-14.72,185.75-7.61,197.38c7.92,12.95,45.75-29.05,44.45-30.95-1.1-1.62,11.19-38,20.12-64.61,8.92-26.58-7.23-13.68-13.72-6.38Z"/>
                <g>
                  <path class="cls-1" d="m55.27,101.91c.05-.26.15-.53.26-.77.12-.27.24-.54.39-.8.07-.12.13-.24.21-.35.04-.06.07-.11.12-.16.01-.01.03-.02.04-.03,0-.01-.01-.02,0-.03.06-.08.11-.07.2-.09.09-.02.16.02.21.09.16.22.11.51.1.77-.01.27-.05.54-.09.82-.05.31-.1.63-.22.92-.06.13-.09.22-.19.33-.04.06-.09.1-.16.13-.04.03-.05.03-.01,0-.06.04-.1.09-.16.13-.11.03-.13.04-.08.04-.01.02-.03.04-.04.06-.11.18-.4.09-.4-.12,0-.02,0-.05,0-.07.05.03.03,0-.04-.07-.04-.07-.04-.13-.07-.2.01.05.01.05,0,0-.03-.05-.05-.11-.06-.17-.04-.15-.01-.27.01-.42Z"/>
                  <g>
                    <path class="cls-1" d="m53.1,104.73s0-.02.01-.03c.01-.03.01-.03-.01.03Z"/>
                    <path class="cls-1" d="m52.43,103.22c.14-.21.27-.42.42-.62.16-.23.32-.48.57-.62.18-.1.37.04.38.23,0,.27-.12.53-.2.78-.08.24-.15.47-.21.71-.06.26-.11.52-.19.78-.02.07-.06.14-.09.21-.03.06-.11.24-.09.22-.17.28-.58.41-.86.23-.71-.44-.04-1.44.28-1.92Z"/>
                  </g>
                  <path class="cls-1" d="m36.66,111.61c-.06-.39.34-.7.58-.96.08-.09.17-.19.25-.28.04-.04.08-.09.12-.14-.04.05.02-.02.02-.03.03-.04.06-.07.1-.09.07-.07.14-.14.2-.2.1-.1.24,0,.25.11,0,.06.02.11.02.17,0,.05,0,.11,0,.16-.01-.05-.02-.1-.04-.15.08.17.02.36-.02.54-.03.14-.07.27-.12.4-.13.36-.33.91-.77.94-.04.01-.08.02-.12.02-.04,0-.08.02-.12.02-.08,0-.15-.03-.22-.08-.1-.08-.12-.19-.13-.3,0-.04-.01-.08-.01-.12Z"/>
                </g>
              </g>
            </g>
            <g>
              <path class="cls-2" d="m17.94,210.82l6.58-44.61s-10.55-18.43-4.43-31.65c3.09-6.7,24.28-39.43,35.7-47.72,10.71-7.77,25.38-.68,30.37,6.08,14.35,19.44,21.34,54.44,29.35,117.9H17.94Z"/>
              <g>
                <path class="cls-1" d="m55.27,101.91c.05-.26.15-.53.26-.77.12-.27.24-.54.39-.8.07-.12.13-.24.21-.35.04-.06.07-.11.12-.16.01-.01.03-.02.04-.03,0-.01-.01-.02,0-.03.06-.08.11-.07.2-.09.09-.02.16.02.21.09.16.22.11.51.1.77-.01.27-.05.54-.09.82-.05.31-.1.63-.22.92-.06.13-.09.22-.19.33-.04.06-.09.1-.16.13-.04.03-.05.03-.01,0-.06.04-.1.09-.16.13-.11.03-.13.04-.08.04-.01.02-.03.04-.04.06-.11.18-.4.09-.4-.12,0-.02,0-.05,0-.07.05.03.03,0-.04-.07-.04-.07-.04-.13-.07-.2.01.05.01.05,0,0-.03-.05-.05-.11-.06-.17-.04-.15-.01-.27.01-.42Z"/>
                <g>
                  <path class="cls-1" d="m53.1,104.73s0-.02.01-.03c.01-.03.01-.03-.01.03Z"/>
                  <path class="cls-1" d="m52.43,103.22c.14-.21.27-.42.42-.62.16-.23.32-.48.57-.62.18-.1.37.04.38.23,0,.27-.12.53-.2.78-.08.24-.15.47-.21.71-.06.26-.11.52-.19.78-.02.07-.06.14-.09.21-.03.06-.11.24-.09.22-.17.28-.58.41-.86.23-.71-.44-.04-1.44.28-1.92Z"/>
                </g>
                <g>
                  <path class="cls-1" d="m55.15,108.79c.11-.34.26-.65.43-.96.15-.27.33-.49.55-.71.11-.11.21-.22.35-.29.14-.08.28-.11.44-.13.17-.02.27.18.23.32-.03.11-.06.21-.1.32-.02.05-.04.09-.06.14,0,0-.02.03-.02.04,0,.02-.03.07-.03.07,0,.03-.01.06-.02.08,0,0,0,.02-.01.04,0,0,0,.01,0,.03,0,0,0,0,0,.01,0,0,0,0,0,0,0,0,0,0,0,0-.02.1-.03.19-.06.29-.03.13-.06.25-.09.38-.06.28-.11.55-.21.81-.09.23-.2.42-.36.61-.02.02-.04.05-.07.07,0,0-.1.09-.06.05.02-.03.01-.02-.03.04-.02.02-.04.05-.06.07-.04.05-.1.09-.16.11-.23.1-.49.05-.62-.18-.04-.07-.06-.14-.07-.22,0,0,0-.07,0-.1,0,.03,0,.02,0,0,0,0,0,0,0,0,0,0,0,0,0-.02,0-.05-.01-.11-.02-.16,0-.04,0-.07,0-.11-.02-.2.01-.42.07-.62Z"/>
                  <path class="cls-1" d="m55.11,109.69s0,0,0,0c0,0,0,0,0,0,0,0,0,0,0,0,0,0,0,0,0,0Z"/>
                </g>
                <path class="cls-1" d="m36.66,111.61c-.06-.39.34-.7.58-.96.08-.09.17-.19.25-.28.04-.04.08-.09.12-.14-.04.05.02-.02.02-.03.03-.04.06-.07.1-.09.07-.07.14-.14.2-.2.1-.1.24,0,.25.11,0,.06.02.11.02.17,0,.05,0,.11,0,.16-.01-.05-.02-.1-.04-.15.08.17.02.36-.02.54-.03.14-.07.27-.12.4-.13.36-.33.91-.77.94-.04.01-.08.02-.12.02-.04,0-.08.02-.12.02-.08,0-.15-.03-.22-.08-.1-.08-.12-.19-.13-.3,0-.04-.01-.08-.01-.12Z"/>
                <path class="cls-1" d="m78.67,101.19c.57.53,1,1.24,1.41,1.9.22.34.38.76.49,1.15.06.19.1.4.12.6.01.11.04.23.03.35,0,.11-.06.19-.08.3-.05.24-.37.28-.52.12-.02-.02-.03-.03-.05-.05.05.03.1.06.15.09-.38-.14-.55-.66-.7-1-.15-.37-.29-.76-.39-1.15-.09-.36-.19-.73-.29-1.09-.1-.38-.24-.76-.31-1.15-.02-.08.07-.13.13-.07Z"/>
                <path class="cls-1" d="m77.26,105.26c.03-.36.02-.73.07-1.09.01-.07.11-.11.15-.04.15.32.26.65.41.97.16.34.33.69.47,1.04.14.36.21.7.26,1.08.04.29.13.95-.28,1.05-.39.1-.65-.44-.76-.72-.17-.4-.29-.78-.32-1.22-.02-.35-.02-.73,0-1.08Z"/>
                <path class="cls-1" d="m94.75,112.76c0-.1-.02-.2-.02-.29.01-.16.02-.33.06-.48.03-.13.22-.17.31-.07.1.12.2.26.28.4.05.08.07.18.13.26.04.06.09.11.13.18.18.29.3.62.44.93.15.36.33.71.43,1.08.07.23.2.55.06.76l-.02.06c-.01-.09-.02-.05-.03.12-.02.07-.05.13-.08.18,0,0,0,0,0,.01,0,.17-.13.33-.3.37-.17.04-.3-.04-.41-.16-.08-.04-.16-.09-.24-.16.04.03.05.03.01,0-.06-.04-.12-.08-.17-.13-.19-.19-.26-.43-.33-.68-.1-.34-.13-.7-.18-1.04-.05-.37-.12-.75-.1-1.12,0-.07.03-.14.03-.22Z"/>
              </g>
              <path class="cls-1" d="m37.15,107.42c-2.17,2.97-4.27,5.99-6.34,9.03.56-1.18,1.13-2.37,1.69-3.55.04-.09-.09-.16-.13-.07-.77,1.49-1.48,3-2.17,4.51-2.76,4.09-5.45,8.24-8.03,12.44-1.1,1.78-2.11,3.6-2.85,5.56-.72,1.9-1.16,3.9-1.4,5.92-.24,2.02-.25,4.05-.1,6.07.16,2.09.41,4.15.88,6.2.53,2.3,1.25,4.6,2.18,6.77.46,1.07.95,2.13,1.47,3.16.48.94,1.46,2.88,1.45,2.95-.2,1.07-.4,1.82-.53,2.72-.14.92-.28,1.83-.41,2.75-.28,1.83-2.65,19.65-2.92,21.48-.53,3.64-.99,7.28-1.44,10.93-.26,2.09-.4,4.21-.69,6.29-.01.08.12.12.13.03.3-1.82.75-3.61,1.08-5.43.33-1.82.67-3.63,1.01-5.45.69-3.67,3.34-23.36,3.91-27.04.16-1.02.32-2.04.48-3.06.16-1.01.43-2.38.39-3.4,0,0-3.27-6.71-4.54-11.42-.53-1.98-1.08-4.03-1.3-6.07-.22-2-.24-4.02-.07-6.03.16-2.01.54-4,1.16-5.92.63-1.98,1.55-3.82,2.56-5.63,2.13-3.79,4.4-7.51,6.7-11.2,2.61-4.19,5.24-8.36,7.94-12.48.05-.07-.06-.13-.11-.06Z"/>
            </g>
            <g>
              <path class="cls-7" d="m93.19,102.16c28.25,35.95,38.91,100.54,23.23,105.57-14.33,4.6-73.26-10.15-90.81-16.11-5.16-1.75,10.77-41.84,16.28-39.97,6.67,2.26,43.11,10.89,43.82,10.91,1.51.03-6.59-39.73-10.06-57.75-4.84-25.1,6.93-16.15,17.54-2.65Z"/>
              <g>
                <path class="cls-2" d="m85.18,160.93c.46-.27-8.01-38.65-10.85-58.68-2.84-20.03,6.11-18.1,18.98-.98,13.79,18.34,38.33,67.98,29.83,104.74-2.75,11.9-88.03-4.77-88.03-4.77l11.49-49.02s37.88,9.13,38.59,8.7Z"/>
                <g>
                  <path class="cls-1" d="m53.1,104.73s0-.02.01-.03c.01-.03.01-.03-.01.03Z"/>
                  <path class="cls-1" d="m55.11,109.69s0,0,0,0c0,0,0,0,0,0,0,0,0,0,0,0,0,0,0,0,0,0Z"/>
                  <path class="cls-1" d="m78.67,101.19c.57.53,1,1.24,1.41,1.9.22.34.38.76.49,1.15.06.19.1.4.12.6.01.11.04.23.03.35,0,.11-.06.19-.08.3-.05.24-.37.28-.52.12-.02-.02-.03-.03-.05-.05.05.03.1.06.15.09-.38-.14-.55-.66-.7-1-.15-.37-.29-.76-.39-1.15-.09-.36-.19-.73-.29-1.09-.1-.38-.24-.76-.31-1.15-.02-.08.07-.13.13-.07Z"/>
                  <path class="cls-1" d="m77.26,105.26c.03-.36.02-.73.07-1.09.01-.07.11-.11.15-.04.15.32.26.65.41.97.16.34.33.69.47,1.04.14.36.21.7.26,1.08.04.29.13.95-.28,1.05-.39.1-.65-.44-.76-.72-.17-.4-.29-.78-.32-1.22-.02-.35-.02-.73,0-1.08Z"/>
                  <path class="cls-1" d="m94.75,112.76c0-.1-.02-.2-.02-.29.01-.16.02-.33.06-.48.03-.13.22-.17.31-.07.1.12.2.26.28.4.05.08.07.18.13.26.04.06.09.11.13.18.18.29.3.62.44.93.15.36.33.71.43,1.08.07.23.2.55.06.76l-.02.06c-.01-.09-.02-.05-.03.12-.02.07-.05.13-.08.18,0,0,0,0,0,.01,0,.17-.13.33-.3.37-.17.04-.3-.04-.41-.16-.08-.04-.16-.09-.24-.16.04.03.05.03.01,0-.06-.04-.12-.08-.17-.13-.19-.19-.26-.43-.33-.68-.1-.34-.13-.7-.18-1.04-.05-.37-.12-.75-.1-1.12,0-.07.03-.14.03-.22Z"/>
                </g>
                <path class="cls-1" d="m84.76,161.32c.03-.08-5.41-27.69-5.93-28.61-.53-.95-1.67-3.06-2.14-4.05-.94-1.99-1.76-4.02-2.63-6.03-.07-.17.18-.29.25-.13.94,1.95,2.04,3.81,3.16,5.65.55.91,1.11,1.82,1.66,2.71.04.06-2.68-14.36-3.06-16.89-.03-.19.17-.24.23-.08.82,2.55,9.07,44.35,9.85,47.55,0,0-.54,0-1.4-.13Z"/>
              </g>
            </g>
          </g>
          <g>
            <g>
              <path class="cls-7" d="m75.7,87.26c-.5,1.69-9.33,12.37-17.16,11.55-2.55-.27-1.69-14.25-1.69-14.25l-.17-1.05-2.41-14.65,17.61-9.93,2.54-1.3s.39,4.05.84,9.1c.02.23.04.47.06.72.03.28.07.55.08.82.08.75.15,1.52.21,2.29.05.58.09,1.15.12,1.77.04.62.07,1.22.11,1.83.28,6.09.07,12.37-.14,13.09Z"/>
              <path class="cls-1" d="m75.25,66.74c-4.8,11.27-14.26,15.44-18.58,16.78l-2.41-14.65,17.61-9.93,2.54-1.3s.39,4.05.84,9.1Z"/>
            </g>
            <g>
              <path class="cls-7" d="m34.83,48.45c-1.74,25.99,13.63,29.97,19.24,30.34,5.09.33,22.46.83,26.87-24.85,4.42-25.67-7.12-34.7-18.72-36.08-11.6-1.38-25.65,4.59-27.39,30.59Z"/>
              <g>
                <path class="cls-1" d="m42.73,41.84c.61-.05,1.17-.2,1.77-.31.68-.12,1.23-.15,1.75-.66.28-.27.28-.84.04-1.13-.55-.68-1.42-.74-2.24-.62-.89.13-1.55.45-2.16,1.12-.59.64.03,1.66.84,1.6Z"/>
                <path class="cls-1" d="m61.01,43.14c-.61-.08-1.16-.26-1.75-.41-.67-.16-1.22-.22-1.71-.75-.26-.28-.23-.85.02-1.13.59-.65,1.46-.66,2.28-.49.89.18,1.52.54,2.1,1.24.56.67-.13,1.66-.93,1.55Z"/>
                <g>
                  <g>
                    <path class="cls-1" d="m56.75,49.77c.02-.07.13.09.13.16-.13,1.77.01,3.82,1.59,4.48.05.02.04.11-.02.1-1.94-.36-2.11-3.08-1.7-4.74Z"/>
                    <path class="cls-1" d="m58.41,47.98c2.86-.09,2.84,5.63.19,5.72-2.61.09-2.58-5.64-.19-5.72Z"/>
                  </g>
                  <path class="cls-1" d="m59.53,48.29c.5.33.99.9,1.59.96.7.07,1.23-.53,1.69-1.1.05-.06.1,0,.1.07.01,1.1-.41,2.22-1.59,2.38-1.07.15-1.84-.83-2.11-1.93-.05-.2.13-.51.33-.37Z"/>
                </g>
                <g>
                  <g>
                    <path class="cls-1" d="m45.93,48.46c-.01-.07-.14.08-.14.15.03,1.77-.23,3.81-1.84,4.38-.05.02-.05.11.01.1,1.96-.25,2.28-2.96,1.97-4.63Z"/>
                    <path class="cls-1" d="m44.37,46.58c-2.85-.25-3.15,5.46-.51,5.7,2.6.23,2.9-5.49.51-5.7Z"/>
                  </g>
                  <path class="cls-1" d="m43.16,46.9c-.47.28-.94.81-1.49.81-.63,0-1.06-.63-1.43-1.25-.04-.06-.09-.02-.09.06-.09,1.09.21,2.25,1.25,2.51.95.24,1.7-.66,2.02-1.73.06-.2-.08-.51-.27-.4Z"/>
                </g>
                <path class="cls-1" d="m55,63.52c-.41.43-.81,1.02-1.45,1.1-.61.08-1.35-.17-1.92-.37-.06-.02-.11.04-.07.09.49.66,1.47,1.05,2.29.87.8-.17,1.16-.88,1.33-1.62.02-.1-.11-.14-.17-.07Z"/>
                <path class="cls-1" d="m47.69,57s-.41,2.64-.43,3.89c0,.12.3.18.72.21.02,0,.03.01.05,0,2.2.38,4.43-.35,5.8-2.13.09-.12-.07-.25-.18-.18-1.67,1.18-3.49,1.47-5.45,1.47-.08-.35.85-4.5.65-4.52-.68-.07-2.03.37-2.85.6.69-5.53,2.26-10.9,2.87-16.42.02-.2-.26-.26-.32-.09-2.05,5.52-2.98,11.86-3.84,17.56-.11.71,2.47-.19,2.98-.39Z"/>
              </g>
              <g>
                <path class="cls-1" d="m50.21,23.09s-.69,4.08.94,6.83c3.35,5.66,10.34,3.47,12.99,5.59,2.48,1.99,2.09,6.6,4.35,8.61,3.13,2.78,6.92,1.26,7.58,3.26.65,2,2.59,8.39,5.27,8.98,2.68.6,10.78-43.75-23.16-39.35,0,0-4.85-1.49-11.77,2.81-7.64,4.74-9.95,18.21-9.95,18.21,0,0,.15-.19,1.23-1.32,1.51-1.6,2.03-2.99,3.15-4.04,1.76-1.64,2.85-1.18,4.69-2.79,2.8-2.46,4.69-6.78,4.69-6.78Z"/>
                <path class="cls-1" d="m50.56,21.16c-.38,1.74-.57,3.53-.53,5.3.02,1.75.27,3.56,1.18,5,.91,1.39,2.54,2.25,4.18,2.69,1.67.45,3.47.46,5.28,1,.89.3,1.78.74,2.44,1.51.65.76.96,1.67,1.23,2.53.52,1.71,1.04,3.4,2.31,4.55,1.25,1.14,3,1.74,4.74,1.51,1.72-.15,3.57-.8,5.31-.2-1.79-.46-3.48.31-5.26.6-1.82.33-3.78-.22-5.21-1.43-1.51-1.22-2.08-3.15-2.61-4.79-.28-.83-.59-1.64-1.12-2.24-.51-.59-1.29-.98-2.08-1.23-1.62-.52-3.45-.57-5.22-1.07-.89-.24-1.76-.61-2.55-1.11-.77-.49-1.54-1.13-1.99-1.98-.94-1.66-1.09-3.55-1.04-5.34.1-1.8.44-3.58.95-5.29Z"/>
                <path class="cls-1" d="m50.04,22.77c-.18,1.65-.61,3.28-1.23,4.84-.61,1.56-1.64,3.06-3.08,4.06-.72.51-1.57.81-2.27,1.12-.67.31-1.37.81-1.73,1.4-.39.67-.73,1.5-1.3,2.14-.57.64-1.28,1.14-2.05,1.45.67-.48,1.3-1.02,1.72-1.71.47-.66.7-1.4,1.06-2.2.43-.88,1.18-1.36,1.96-1.8.79-.38,1.52-.64,2.14-1.1,1.29-.9,2.23-2.2,2.94-3.65.73-1.45,1.3-2.99,1.85-4.56Z"/>
              </g>
              <g>
                <path class="cls-3" d="m51.52,50.49l.86-.89c-1.26-1.34-4.28-3.27-6.7-1.02l.8.95c2.17-2.02,4.92.84,5.04.96Z"/>
                <path class="cls-3" d="m88.66,56.88l1.18-.47c-.22-.55-2.24-5.38-5.02-6.1-2.6-.67-14.08-.68-14.8-.67v1.27c4.9,0,12.48.11,14.48.63,1.83.48,3.63,4.02,4.16,5.35Z"/>
                <path class="cls-3" d="m52.44,55.44c-1.24-1.34-2.18-5.77-.3-7.55,3.5-3.31,18.59-3.26,19.23-3.25h.84s-.18.82-.18.82c-.08.36-2,8.75-5.04,10.99-1.1.82-3.02,1.25-5.13,1.34-3.66.16-7.88-.7-9.42-2.35Zm.62-6.57c-1.21,1.15-.5,4.73.36,5.66,1.8,1.94,10.12,2.8,12.76.84,1.96-1.45,3.63-6.67,4.32-9.38-4.74.04-15.03.6-17.45,2.89Z"/>
                <path class="cls-3" d="m39.26,54.84c-1.94-.29-3.41-1.16-4.01-2.36-1.26-2.53-1.36-10.41-1.36-10.74v-.81s.79.13.79.13c1.04.18,10.21,1.84,11.56,5.58.92,2.54-.23,5.67-1.37,6.87-.93.97-2.42,1.36-3.82,1.42-.63.03-1.24-.01-1.78-.09Zm-2.81-2.96c.4.8,1.52,1.41,3.01,1.63,1.81.28,3.64-.11,4.43-.93.77-.81,1.83-3.4,1.08-5.48-.84-2.32-6.7-3.95-9.72-4.56.07,2.62.37,7.66,1.21,9.33Z"/>
              </g>
              <g>
                <path class="cls-7" d="m75.78,54.84s5.52-8.24,9.25-6.29c3.73,1.95-.31,13.82-4.61,15.52-4.3,1.7-5.95-2.25-5.95-2.25l1.31-6.98Z"/>
                <path class="cls-1" d="m83.79,51.92c.07,0,.08.09.03.12-3.01,1.29-4.56,4.14-5.62,7.08.88-1.14,2.1-1.78,3.63-.74.08.05,0,.18-.08.16-1.25-.24-2.14,0-2.96,1-.58.72-.97,1.62-1.38,2.44-.14.27-.63.14-.53-.18,0-.02.02-.05.02-.07-.15-3.87,2.75-9.35,6.9-9.82Z"/>
              </g>
            </g>
          </g>
          <g>
            <path class="cls-2" d="m77.97,86.28s.05-7.82-.61-8.65c-.66-.83-10.54,5.85-13.77,6.2-3.23.35-7.86-.67-8.63-.37-.77.3-.99,7.65-.95,8.05.04.4,2.02,7.99,4.3,8.35,2.28.36,12.56-1.29,19.67-13.58Z"/>
            <g>
              <path class="cls-1" d="m75.91,79.72c-.21.9-.2,1.67-.19,2.47.05.79.11,1.57.41,2.45.55-.76.68-1.64.66-2.49-.05-.85-.27-1.73-.89-2.42Z"/>
              <path class="cls-1" d="m73.44,81.36c-.26,1.01-.27,1.92-.27,2.85.03.93.1,1.85.42,2.84.53-.9.66-1.89.65-2.86-.04-.97-.22-1.96-.8-2.82Z"/>
              <path class="cls-1" d="m70.79,83.11c-.21,1.12-.21,2.14-.2,3.18.04,1.04.1,2.07.4,3.17.55-1.01.69-2.11.68-3.2-.04-1.08-.26-2.19-.88-3.15Z"/>
              <path class="cls-1" d="m68.22,84.76c-.22,1.24-.21,2.39-.2,3.55.04,1.17.1,2.32.39,3.54.56-1.14.7-2.36.68-3.57-.04-1.2-.25-2.43-.87-3.53Z"/>
              <path class="cls-1" d="m54.8,92.03c.18-1.21.22-2.37.28-3.54.03-1.17.07-2.34-.05-3.56-.52,1.12-.7,2.33-.76,3.53-.04,1.2.08,2.43.53,3.57Z"/>
              <path class="cls-1" d="m65.04,86.01c-.33,1.22-.34,2.41-.27,3.59.11,1.18.29,2.36.81,3.51.34-1.22.34-2.41.27-3.59-.11-1.18-.29-2.36-.81-3.51Z"/>
              <path class="cls-1" d="m57.15,85.61c-.39,1.36-.53,2.74-.61,4.11-.06,1.38-.06,2.76.19,4.15.39-1.36.53-2.74.61-4.11.06-1.38.05-2.76-.19-4.15Z"/>
              <path class="cls-1" d="m62.04,85.96c-.31,1.5-.33,2.96-.3,4.43.06,1.46.18,2.92.55,4.4.26-.73.38-1.47.46-2.21.08-.74.09-1.48.08-2.22-.07-1.48-.25-2.96-.78-4.39Z"/>
              <path class="cls-1" d="m59.16,85.66c-.55,1.62-.7,3.3-.69,4.97.04,1.67.21,3.34.8,4.95.27-1.68.29-3.32.28-4.96-.04-1.64-.09-3.27-.38-4.95Z"/>
            </g>
          </g>
        </g>
      </g>
    </g>
  </g>
</svg>