<?xml version="1.0" encoding="UTF-8"?>
<svg id="Layer_2" data-name="Layer 2" xmlns="http://www.w3.org/2000/svg" xmlns:xlink="http://www.w3.org/1999/xlink" viewBox="0 0 123.71 123.71">
  <defs>
    <style>
      .cls-1 {
        fill: #3c3575;
      }

      .cls-2 {
        fill: #bb4d9b;
      }

      .cls-3 {
        fill: #e6a2b5;
      }

      .cls-4 {
        fill: #f2e0d8;
      }

      .cls-5 {
        clip-path: url(#clippath);
      }

      .cls-6 {
        fill: none;
      }

      .cls-7 {
        fill: #ad6359;
      }
    </style>
    <clipPath id="clippath">
      <circle class="cls-6" cx="61.85" cy="61.85" r="61.85"/>
    </clipPath>
  </defs>
  <g id="OBJECTS">
    <g>
      <circle class="cls-4" cx="61.85" cy="61.85" r="61.85"/>
      <g class="cls-5">
        <g>
          <g>
            <g>
              <path class="cls-7" d="m41.81,93.46c-26.22,29.49-57.96,90.32-50.85,101.94,7.92,12.95,45.75-29.05,44.45-30.95-1.1-1.62,11.19-38,20.12-64.61,8.92-26.58-7.23-13.68-13.72-6.38Z"/>
              <g>
                <path class="cls-1" d="m41.81,93.46c-26.22,29.49-57.96,90.32-50.85,101.94,7.92,12.95,45.75-29.05,44.45-30.95-1.1-1.62,11.19-38,20.12-64.61,8.92-26.58-7.23-13.68-13.72-6.38Z"/>
                <g>
                  <path class="cls-4" d="m55.66,83.92c-1.25-.24-2.71.59-3.7,1.75-1.55.72-3.07,1.97-2.63,3.65.32,1.2,1.48,1.96,2.68,1.98,1.2.02,2.23-.61,3.1-1.38.91-.8,1.93-1.9,2.22-3.12.28-1.21-.36-2.63-1.67-2.88Z"/>
                  <path class="cls-4" d="m32.87,107.1c-.76.49-1.68.89-2.6.82,1.49-2.04,2.97-4.02,4.45-5.92,1.54,1.46-.46,4.19-1.85,5.1Z"/>
                  <path class="cls-4" d="m46.44,104.65c-.1-.89-.92-1.5-1.79-1.4-.02,0-.05.01-.07.02-.13-.03-.27-.02-.42.02-1.34.37-3.09,1.36-3.4,2.85-.4,1.94,1.96,2.6,3.35,1.87,1.15-.6,2.49-1.95,2.34-3.35Z"/>
                  <path class="cls-4" d="m26.26,118.54c-.66-.43-1.36-.48-2.04-.04-.19.12-.39.29-.56.48-.15.09-.29.2-.41.33-.54.55-.66,1.24-.46,1.97.11.42.65.72,1.07.66,1.19-.17,2.28-.96,2.69-2.11.15-.41.13-1.02-.29-1.29Z"/>
                  <path class="cls-4" d="m54.22,97.51c-.07-.57-.45-1.02-1.02-1.14-.44-.1-.86.08-1.21.34-.21.15-.41.33-.59.51-.33.14-.63.33-.84.6-.36.46-.29,1.28.29,1.54.29.32.79.47,1.21.31.09-.03.16-.08.24-.13.22-.03.43-.08.64-.17.71-.32,1.4-1.03,1.29-1.87Z"/>
                </g>
              </g>
            </g>
            <g>
              <path class="cls-1" d="m16.52,208.85l6.58-44.61s-10.55-18.43-4.43-31.65c3.09-6.7,24.28-39.43,35.7-47.72,10.71-7.77,25.38-.68,30.37,6.08,14.35,19.44,21.34,54.44,29.35,117.9H16.52Z"/>
              <path class="cls-2" d="m35.72,105.44c-2.17,2.97-4.27,5.99-6.34,9.03.56-1.18,1.13-2.37,1.69-3.55.04-.09-.09-.16-.13-.07-.77,1.49-1.48,3-2.17,4.51-2.76,4.09-5.45,8.24-8.03,12.44-1.1,1.78-2.11,3.6-2.85,5.56-.72,1.9-1.16,3.9-1.4,5.92-.24,2.02-.25,4.05-.1,6.07.16,2.09.41,4.15.88,6.2.53,2.3,1.25,4.6,2.18,6.77.46,1.07.95,2.13,1.47,3.16.48.94,1.46,2.88,1.45,2.95-.2,1.07-.4,1.82-.53,2.72-.14.92-.28,1.83-.41,2.75-.28,1.83-2.65,19.65-2.92,21.48-.53,3.64-.99,7.28-1.44,10.93-.26,2.09-.4,4.21-.69,6.29-.01.08.12.12.13.03.3-1.82.75-3.61,1.08-5.43.33-1.82.67-3.63,1.01-5.45.69-3.67,3.34-23.36,3.91-27.04.16-1.02.32-2.04.48-3.06.16-1.01.43-2.38.39-3.4,0,0-3.27-6.71-4.54-11.42-.53-1.98-1.08-4.03-1.3-6.07-.22-2-.24-4.02-.07-6.03.16-2.01.54-4,1.16-5.92.64-1.98,1.55-3.82,2.56-5.63,2.13-3.79,4.4-7.51,6.7-11.2,2.61-4.19,5.24-8.36,7.94-12.48.05-.07-.06-.13-.11-.06Z"/>
              <g>
                <path class="cls-4" d="m80.12,109.73c-.32-.55-.94-.91-1.57-.9-.04,0-.09,0-.13,0-.05,0-.09.01-.13.01-.28-.02-.57,0-.85.08-1.52.43-2.97,2.36-3.12,4.05-.3.6-.36,1.27.11,2,.81,1.26,2.49,1.09,3.6.36,1.91-.92,3.13-3.83,2.1-5.6Z"/>
                <path class="cls-4" d="m89.41,98.31c-.49-1.89-2.68-2.58-4.15-1.3-.97.85-1.94,2.32-2.31,3.69-.42.48-.81,1.01-1.12,1.63-.48.98-.08,2.11,1,2.45,1.84.58,3.49-.63,4.67-1.93,1.05-1.17,2.34-2.87,1.91-4.54Z"/>
                <path class="cls-4" d="m90.78,110.2c-1.37-.44-2.35.6-3.02,1.65-.15.23-.33.5-.51.78-.7.57-1.23,1.34-1.43,2.26-.24,1.12.62,2.07,1.71,2.17,1.09.1,2.11-.52,2.88-1.24,1.34-1.24,3.04-4.77.37-5.62Z"/>
                <path class="cls-4" d="m73.64,100.01c-.93-.27-1.89.08-2.55.74-.22.22-.41.48-.59.74-.88.57-1.62,1.24-1.55,2.49.06,1.04.86,1.83,1.9,1.88,1.05.06,1.97-.63,2.74-1.25.76-.62,1.58-1.42,1.64-2.47.05-1-.63-1.86-1.58-2.13Z"/>
                <path class="cls-4" d="m65.7,112.9c-.71-.45-1.6-.37-2.28.08-.5.33-1,.99-1.23,1.64-.61.57-.98,1.31-.72,2.27.23.82.92,1.54,1.8,1.58.83.04,1.53-.41,2.05-1.03.94-1.11,2.01-3.52.38-4.54Z"/>
                <path class="cls-4" d="m71.01,120.37c-.72-.3-1.46-.23-2.13.04-2.16-.14-3.73,1.93-4.1,3.96-.18.98-.01,2.15.91,2.71,1.15.7,2.48-.11,3.44-.75,1.08-.72,1.97-1.69,2.43-2.91.38-1.01.66-2.55-.55-3.05Z"/>
                <path class="cls-4" d="m81.37,123.16c-.26-.9-1.12-1.31-1.99-.99-.77.28-1.63,1.03-2.14,1.9-.2.15-.39.32-.53.54-.36.57-.43,1.32-.06,1.91.99,1.59,3.45-.02,4.22-1.07.48-.64.73-1.51.5-2.3Z"/>
              </g>
              <g>
                <path class="cls-4" d="m57.33,86.81c-.29,1.22-1.31,2.31-2.22,3.12-.87.76-1.9,1.4-3.1,1.38-1.18-.03-2.33-.77-2.66-1.93,1.8-1.86,3.5-3.4,5.02-4.51.46-.33.92-.64,1.4-.92,1.23.31,1.83,1.68,1.56,2.86Z"/>
                <path class="cls-4" d="m46.44,104.65c-.1-.89-.92-1.5-1.79-1.4-.02,0-.05.01-.07.02-.13-.03-.27-.02-.42.02-1.34.37-3.09,1.36-3.4,2.85-.4,1.94,1.96,2.6,3.35,1.87,1.15-.6,2.49-1.95,2.34-3.35Z"/>
                <path class="cls-4" d="m26.63,119.3c0,.19-.03.37-.08.53-.24.67-.71,1.22-1.3,1.58.44-.68.9-1.39,1.38-2.11Z"/>
                <path class="cls-4" d="m54.22,97.51c-.07-.57-.45-1.02-1.02-1.14-.44-.1-.86.08-1.21.34-.21.15-.41.33-.59.51-.33.14-.63.33-.84.6-.36.46-.29,1.28.29,1.54.29.32.79.47,1.21.31.09-.03.16-.08.24-.13.22-.03.43-.08.64-.17.71-.32,1.4-1.03,1.29-1.87Z"/>
              </g>
            </g>
            <g>
              <path class="cls-7" d="m91.77,100.19c28.25,35.95,38.91,100.54,23.23,105.57-14.33,4.6-73.26-10.15-90.81-16.11-5.16-1.75,10.77-41.84,16.28-39.97,6.67,2.26,43.11,10.89,43.82,10.91,1.51.03-6.59-39.73-10.06-57.75-4.84-25.1,6.93-16.15,17.54-2.65Z"/>
              <g>
                <path class="cls-1" d="m83.76,158.96c.46-.27-8.01-38.65-10.85-58.68-2.84-20.03,6.11-18.1,18.98-.98,13.79,18.34,38.33,67.98,29.83,104.74-2.75,11.9-88.03-4.77-88.03-4.77l11.49-49.02s37.88,9.13,38.59,8.7Z"/>
                <g>
                  <path class="cls-4" d="m78.03,115.33c-.74.49-1.72.73-2.54.46-.26-1.45-.52-2.87-.76-4.27.56-1.21,1.62-2.29,2.71-2.6.27-.08.56-.1.85-.08.04,0,.08-.01.13-.01h.13c.64,0,1.26.35,1.58.9,1.03,1.78-.19,4.68-2.1,5.6Z"/>
                  <path class="cls-4" d="m89.41,98.31c-.49-1.89-2.68-2.58-4.15-1.3-.97.85-1.94,2.32-2.31,3.69-.42.48-.81,1.01-1.12,1.63-.48.98-.08,2.11,1,2.45,1.84.58,3.49-.63,4.67-1.93,1.05-1.17,2.34-2.87,1.91-4.54Z"/>
                  <path class="cls-4" d="m90.78,110.2c-1.37-.44-2.35.6-3.02,1.65-.15.23-.33.5-.51.78-.7.57-1.23,1.34-1.43,2.26-.24,1.12.62,2.07,1.71,2.17,1.09.1,2.11-.52,2.88-1.24,1.34-1.24,3.04-4.77.37-5.62Z"/>
                  <path class="cls-4" d="m75.22,102.14c-.05,1.05-.87,1.85-1.63,2.47l-.02.02c-.24-1.53-.47-2.98-.66-4.35-.02-.12-.03-.24-.05-.35.26-.02.52,0,.78.08.95.28,1.63,1.14,1.58,2.13Z"/>
                  <path class="cls-4" d="m101.7,114.8s-.03.03-.05.04c-1.24.95-3.69.69-3.62-1.28.04-1,.72-1.88,1.53-2.53.71,1.21,1.43,2.47,2.14,3.77Z"/>
                  <path class="cls-4" d="m80.87,125.46c-.57.78-2.09,1.87-3.23,1.71-.19-.98-.38-1.97-.57-2.95.06-.06.12-.1.18-.15.5-.87,1.36-1.61,2.13-1.9.87-.32,1.73.09,1.99.99.23.79-.02,1.65-.5,2.3Z"/>
                  <path class="cls-4" d="m91.73,99.09s-.08-.07-.11-.12c-.03-.04-.06-.08-.08-.13.06.08.12.16.19.25Z"/>
                </g>
                <path class="cls-2" d="m83.34,159.35c.03-.08-5.41-25.28-5.93-26.19-.53-.95-1.67-3.06-2.14-4.05-.94-1.99-1.76-4.02-2.63-6.03-.07-.17.18-.29.25-.13.94,1.95,2.04,3.81,3.16,5.65.55.91,1.11,1.82,1.66,2.71.04.06-2.68-14.36-3.06-16.89-.03-.19.17-.24.23-.08.82,2.55,9.07,41.93,9.85,45.13,0,0-.54,0-1.4-.13Z"/>
              </g>
            </g>
          </g>
          <path class="cls-7" d="m55.34,84.21c-2.94,2.24-19.2,28.91-17.87,30.9,1.33,2,24.86,4.32,26.69,2.99,1.83-1.33,10.11-32.82,10.11-32.82l-18.93-1.07Z"/>
          <g>
            <g>
              <path class="cls-7" d="m74.27,85.28c-.5,1.69-9.33,12.37-17.16,11.55-2.55-.27-1.69-14.25-1.69-14.25l-.17-1.05-2.41-14.65,17.61-9.93,2.54-1.3s.39,4.05.84,9.1c.02.23.04.47.06.72.03.28.07.55.08.82.08.75.15,1.52.21,2.29.05.58.09,1.15.12,1.77.04.62.07,1.22.11,1.83.28,6.09.07,12.37-.14,13.09Z"/>
              <path class="cls-1" d="m73.82,64.77c-4.8,11.27-14.26,15.44-18.57,16.78l-2.41-14.65,17.61-9.93,2.54-1.3s.39,4.05.84,9.1Z"/>
              <path class="cls-3" d="m55.42,82.59s10.1,1.62,19.12-3.31c0,0,.7,2.79-.1,4.14,0,0-9.47,5.39-19.02,2.01,0,0-.73-1.5,0-2.84Z"/>
            </g>
            <g>
              <path class="cls-7" d="m33.41,46.48c-1.74,25.99,13.63,29.97,19.24,30.34,5.09.34,22.46.83,26.87-24.84,4.42-25.67-7.12-34.7-18.72-36.08-11.6-1.38-25.65,4.59-27.39,30.59Z"/>
              <g>
                <path class="cls-3" d="m41.02,42.57c.59.17,1.17.23,1.77.34.68.12,1.21.29,1.87,0,.35-.15.55-.69.44-1.04-.27-.83-1.07-1.19-1.88-1.37-.88-.2-1.61-.12-2.42.28-.78.39-.55,1.57.23,1.79Z"/>
                <path class="cls-3" d="m59.36,42.1c-.61-.08-1.16-.26-1.75-.41-.67-.16-1.22-.22-1.71-.75-.26-.28-.23-.85.02-1.13.59-.65,1.46-.66,2.28-.49.89.18,1.52.54,2.1,1.24.56.67-.13,1.66-.93,1.55Z"/>
                <g>
                  <g>
                    <path class="cls-1" d="m55.32,47.79c.02-.07.13.09.13.16-.13,1.77.01,3.82,1.59,4.48.05.02.04.11-.02.1-1.94-.36-2.11-3.08-1.7-4.74Z"/>
                    <path class="cls-1" d="m56.98,46.01c2.86-.09,2.84,5.63.19,5.72-2.61.09-2.58-5.64-.19-5.72Z"/>
                  </g>
                  <path class="cls-1" d="m58.11,46.31c.5.33.99.9,1.59.96.7.07,1.23-.53,1.69-1.1.05-.06.1,0,.1.07.01,1.1-.41,2.22-1.59,2.38-1.07.15-1.84-.83-2.11-1.93-.05-.2.13-.51.33-.37Z"/>
                </g>
                <g>
                  <g>
                    <path class="cls-1" d="m44.5,46.48c-.01-.07-.14.08-.14.15.03,1.77-.23,3.81-1.84,4.38-.05.02-.05.11.01.1,1.96-.25,2.28-2.96,1.97-4.63Z"/>
                    <path class="cls-1" d="m42.94,44.61c-2.85-.25-3.15,5.46-.51,5.7,2.6.23,2.9-5.49.51-5.7Z"/>
                  </g>
                  <path class="cls-1" d="m41.73,44.92c-.47.28-.94.81-1.49.81-.63,0-1.06-.63-1.43-1.25-.04-.06-.09-.02-.09.06-.09,1.09.21,2.25,1.25,2.51.95.24,1.7-.66,2.02-1.73.06-.2-.08-.51-.27-.4Z"/>
                </g>
                <path class="cls-1" d="m53.57,61.55c-.41.43-.81,1.02-1.45,1.1-.61.08-1.35-.17-1.92-.37-.06-.02-.11.04-.07.09.49.66,1.47,1.05,2.29.87.8-.17,1.16-.88,1.33-1.62.02-.1-.11-.14-.17-.07Z"/>
                <path class="cls-1" d="m46.26,55.02s-.41,2.64-.43,3.89c0,.12.3.18.72.21.02,0,.03.01.05,0,2.2.38,4.43-.35,5.8-2.13.09-.12-.07-.25-.18-.18-1.67,1.18-3.49,1.47-5.45,1.47-.08-.35.85-4.5.65-4.52-.68-.07-2.03.37-2.85.6.69-5.53,2.26-10.9,2.87-16.42.02-.2-.26-.26-.32-.09-2.05,5.52-2.98,11.86-3.84,17.56-.11.71,2.47-.19,2.98-.39Z"/>
                <g>
                  <path class="cls-1" d="m46.95,58.65s1.09,1.68,2.68,2.36c.59.25,1.23.38,1.91.24,1.41-.28,1.53-1.55,1.34-2.66-.15-.91-.52-1.71-.52-1.71,0,0-2.15,1.77-5.41,1.78Z"/>
                  <path class="cls-3" d="m49.63,61c.59.25,1.23.38,1.91.24,1.41-.28,1.53-1.55,1.34-2.66-1.5.06-3.04.98-3.25,2.42Z"/>
                </g>
              </g>
              <path class="cls-3" d="m76.9,54.88c1.28-1.6,9.8-9.96,10.35-14.35.32-2.56-3.71-9.65-3.71-9.65l3.63-2.31-3.3.8,5.07-7.96-6.13,5.19s-.9-6.58-1.43-8.18c-.53-1.6-10.92-10.43-10.92-10.43l3.04,5.64s-19.17-8.41-21.6-8.26c-6.1.36-19.52,9.76-19.52,9.76l14.32-1.89s-13.84,5.32-16.7,7.77c-2.85,2.45-4.79,14.75-4.79,14.75l12.68-8.06-4.66,6.89s10.9,1.93,14.09,1.9c6.75-.06,22.39-5.26,22.39-5.26,0,0-.52,5.91-.31,7.76.36,3.22,3.32,10.01,3.32,10.01l1.76-5.35,2.43,11.25Z"/>
              <g>
                <path class="cls-7" d="m74.35,53.15s5.52-8.24,9.25-6.29c3.73,1.95-.31,13.82-4.61,15.52-4.3,1.7-5.95-2.25-5.95-2.25l1.31-6.98Z"/>
                <path class="cls-1" d="m82.36,50.23c.07,0,.09.09.03.12-3.01,1.29-4.56,4.14-5.62,7.08.88-1.14,2.1-1.78,3.63-.74.08.05,0,.18-.08.16-1.25-.24-2.14,0-2.96,1-.58.72-.97,1.62-1.38,2.44-.14.27-.63.14-.53-.18,0-.02.02-.05.02-.07-.15-3.87,2.75-9.35,6.9-9.82Z"/>
              </g>
            </g>
          </g>
        </g>
      </g>
    </g>
  </g>
</svg>