<?xml version="1.0" encoding="UTF-8"?>
<svg id="Layer_2" data-name="Layer 2" xmlns="http://www.w3.org/2000/svg" xmlns:xlink="http://www.w3.org/1999/xlink" viewBox="0 0 123.71 123.71">
  <defs>
    <style>
      .cls-1 {
        fill: #3c3575;
      }

      .cls-2 {
        fill: #d3766a;
      }

      .cls-3 {
        fill: #050400;
        opacity: .1;
      }

      .cls-4 {
        fill: #e6a2b5;
      }

      .cls-5 {
        fill: #6f84f0;
      }

      .cls-6 {
        fill: #f2e0d8;
      }

      .cls-7 {
        clip-path: url(#clippath);
      }

      .cls-8 {
        fill: none;
      }
    </style>
    <clipPath id="clippath">
      <circle class="cls-8" cx="61.85" cy="61.85" r="61.85"/>
    </clipPath>
  </defs>
  <g id="OBJECTS">
    <g>
      <circle class="cls-6" cx="61.85" cy="61.85" r="61.85"/>
      <g class="cls-7">
        <g>
          <g>
            <path class="cls-1" d="m56.62,13.71s13.26-7.33,25.04,0c11.78,7.33,17.39,25.4,15.37,40.56-2.02,15.16,10.34,25.17,11.67,36.43s-6.06,16.47-8.54,22.38c-2.84,6.77,8.54,30.8-20.43,36.37-36.22,6.97-50.08-15.31-46.39-33.73,1.81-9.02,6.89-15.43,6.79-22.73-.09-7.3-5.25-13.12-2.56-22.37,2.69-9.26,6.26-8,7.73-22.53,1.47-14.53-1.52-31.91,11.3-34.38Z"/>
            <path class="cls-1" d="m79.16,13.36c7.84,5.11,13.7,12.28,17.13,20.61,1.73,4.22,2.79,8.68,3.07,13.19.37,5.92-.53,11.47,1.67,17.22,3.53,9.21,10.59,16.89,10.25,27.14-.15,4.73-1.65,9.37-4.35,13.38-3.13,4.63-7.59,8.29-10.21,13.25-.11.2-.43.03-.33-.18,2.18-4.41,5.73-7.78,8.67-11.73,3.53-4.72,5.52-10.34,5.35-16.12-.28-9.75-7.24-17.24-10.49-26.13-1.47-4.02-1.57-7.92-1.44-12.13.15-4.98-.38-9.87-1.88-14.66-2.96-9.46-9.27-17.63-17.55-23.72-.07-.05.02-.17.1-.12Z"/>
            <path class="cls-1" d="m33.49,113.12c.91-4.36,3.19-8.31,4.1-12.65,1.09-5.23-.23-10.44-1.22-15.57-1.42-7.32-1.26-14.24,1.97-21.14,2.09-4.46,4.64-8.63,6.19-13.32,1.68-5.08,2.62-10.41,2.76-15.74,0-.12.19-.12.19,0,.06,7.85-1.41,15.29-4.85,22.45-1.97,4.12-4.43,7.99-5.57,12.43-1.37,5.34-.83,10.5.1,15.86.62,3.57,1.37,7.19,1.34,10.83-.03,3.78-1.22,7.14-2.56,10.67-3.47,9.15-3.41,18.53.16,27.64.06.16-.22.27-.29.11-2.96-6.83-3.86-14.29-2.34-21.57Z"/>
            <path class="cls-1" d="m109.69,89.4c-.32-8.03-5.92-13.48-9.31-20.44-2.57-5.26-4.31-10.87-3.46-16.67.01-.09.18-.07.18.02-.44,8.39,3.08,15.99,7.73,23.01,3.09,4.67,5.64,9.16,5.67,14.78.03,5.5-2.17,10.14-5.31,14.7-2.24,3.25-4.43,6.27-5.38,10.11-.94,3.82-.73,7.83-.54,11.7,0,.2-.32.2-.34,0-.53-6.01-.62-11.85,2.41-17.34,3.72-6.75,8.69-11.73,8.36-19.88Z"/>
            <path class="cls-1" d="m32.1,107.42c1.21-2.76,2.91-5.27,4.61-7.78,3.07-4.51,3.58-8.18,2.56-13.54-.02-.12.16-.17.2-.05,1.47,4.41,1.82,8.08-.8,12.15-3.65,5.67-7.23,10.84-7.98,17.62-1.33,12.02,5.46,23.24,16.47,29.32.16.09.02.3-.14.23-9.24-4.55-15.72-12.78-17.07-22.49-.72-5.21,0-10.59,2.14-15.46Z"/>
          </g>
          <g>
            <g>
              <path class="cls-2" d="m43.43,93.46C17.22,122.95-14.53,183.77-7.41,195.4c7.92,12.95,45.75-29.05,44.45-30.95-1.1-1.62,11.19-38,20.12-64.61,8.92-26.58-7.23-13.68-13.72-6.38Z"/>
              <path class="cls-5" d="m43.43,93.46C17.22,122.95-14.53,183.77-7.41,195.4c7.92,12.95,45.75-29.05,44.45-30.95-1.1-1.62,11.19-38,20.12-64.61,8.92-26.58-7.23-13.68-13.72-6.38Z"/>
              <g>
                <path class="cls-6" d="m54.28,89.5c0,4.21-3.42,7.63-7.63,7.63-1.86,0-3.56-.66-4.88-1.75.55-.65,1.11-1.29,1.67-1.92,2.43-2.74,6.22-6.27,9.54-8.21.82,1.21,1.3,2.68,1.3,4.25Z"/>
                <path class="cls-6" d="m55.85,103.72c-.44,1.31-.89,2.65-1.34,3.99.06-1.48.54-2.85,1.34-3.99Z"/>
                <circle class="cls-6" cx="39.02" cy="123.71" r="7.63"/>
              </g>
            </g>
            <g>
              <path class="cls-5" d="m18.14,208.85l6.58-44.61s-10.55-18.43-4.43-31.65c3.09-6.7,24.28-39.43,35.7-47.72,10.71-7.77,25.38-.68,30.37,6.08,14.35,19.44,21.34,54.44,29.35,117.9H18.14Z"/>
              <g>
                <path class="cls-6" d="m54.28,89.5c0,4.21-3.42,7.63-7.63,7.63-.77,0-1.51-.11-2.2-.32,3.29-4.06,6.5-7.62,9.3-10.11.34.87.53,1.81.53,2.8Z"/>
                <circle class="cls-6" cx="62.12" cy="108.06" r="7.63"/>
                <path class="cls-6" d="m89.91,96.34c-1.39,1.68-3.5,2.75-5.86,2.75-4.21,0-7.63-3.41-7.63-7.63,0-2.58,1.29-4.87,3.26-6.25,2.85,1.68,5.2,3.72,6.68,5.74,1.24,1.68,2.42,3.47,3.55,5.39Z"/>
                <circle class="cls-6" cx="85.76" cy="118.24" r="7.63"/>
                <circle class="cls-6" cx="39.02" cy="123.71" r="7.63"/>
              </g>
              <path class="cls-1" d="m37.35,105.44c-2.17,2.97-4.27,5.99-6.34,9.03.56-1.18,1.13-2.37,1.69-3.55.04-.09-.09-.16-.13-.07-.77,1.49-1.48,3-2.17,4.51-2.76,4.09-5.45,8.24-8.03,12.44-1.1,1.78-2.11,3.6-2.85,5.56-.72,1.9-1.16,3.9-1.4,5.92-.24,2.02-.25,4.05-.1,6.07.16,2.09.41,4.15.88,6.2.53,2.3,1.25,4.6,2.18,6.77.46,1.07.95,2.13,1.47,3.16.48.94,1.46,2.88,1.45,2.95-.2,1.07-.4,1.82-.53,2.72-.14.92-.28,1.83-.41,2.75-.28,1.83-2.65,19.65-2.92,21.48-.53,3.64-.99,7.28-1.44,10.93-.26,2.09-.4,4.21-.69,6.29-.01.08.12.12.13.03.3-1.82.75-3.61,1.08-5.43.33-1.82.67-3.63,1.01-5.45.69-3.67,3.34-23.36,3.91-27.04.16-1.02.32-2.04.48-3.06.16-1.01.43-2.38.39-3.4,0,0-3.27-6.71-4.54-11.42-.53-1.98-1.08-4.03-1.3-6.07-.22-2-.24-4.02-.07-6.03.16-2.01.54-4,1.16-5.92.63-1.98,1.55-3.82,2.56-5.63,2.13-3.79,4.4-7.51,6.7-11.2,2.61-4.19,5.24-8.36,7.94-12.48.05-.07-.06-.13-.11-.06Z"/>
            </g>
            <g>
              <path class="cls-2" d="m93.39,100.19c28.25,35.95,38.91,100.54,23.23,105.57-14.33,4.6-73.26-10.15-90.81-16.11-5.16-1.75,10.77-41.84,16.28-39.97,6.67,2.26,43.11,10.89,43.82,10.91,1.51.03-6.58-39.73-10.06-57.75-4.84-25.1,6.93-16.15,17.54-2.65Z"/>
              <g>
                <path class="cls-5" d="m85.38,158.96c.46-.27-8.01-38.65-10.85-58.68-2.84-20.03,6.11-18.1,18.98-.98,13.79,18.34,38.33,67.98,29.83,104.74-2.75,11.9-88.03-4.77-88.03-4.77l11.49-49.02s37.88,9.13,38.59,8.7Z"/>
                <g>
                  <path class="cls-6" d="m90.52,95.5c-1.34,2.16-3.74,3.59-6.47,3.59-4.21,0-7.63-3.41-7.63-7.63,0-2.17.91-4.14,2.38-5.52,2.9.53,6.96,3.85,11.72,9.56Z"/>
                  <circle class="cls-6" cx="85.76" cy="118.24" r="7.63"/>
                  <path class="cls-6" d="m110.66,129.48c-3.92-.32-6.99-3.6-6.99-7.6,0-1.53.45-2.97,1.24-4.16,1.94,3.66,3.88,7.61,5.75,11.76Z"/>
                </g>
                <path class="cls-1" d="m84.96,159.35c.03-.08-5-25.28-5.51-26.19-.53-.95-1.67-3.06-2.14-4.05-.94-1.99-1.76-4.02-2.63-6.03-.07-.17.18-.29.25-.13.94,1.95,2.04,3.81,3.16,5.65.55.91,1.11,1.82,1.66,2.71.04.06-2.68-14.36-3.06-16.89-.03-.19.17-.24.23-.08.82,2.55,8.65,41.93,9.43,45.13,0,0-.54,0-1.4-.13Z"/>
              </g>
            </g>
          </g>
          <g>
            <g>
              <path class="cls-2" d="m75.89,85.28c-.5,1.69-9.33,12.37-17.16,11.55-2.55-.27-1.69-14.25-1.69-14.25l-.17-1.05-2.41-14.65,17.61-9.93,2.54-1.3s.39,4.05.84,9.1c.02.23.04.47.06.72.03.28.07.55.08.82.08.75.15,1.52.21,2.29.05.58.09,1.15.12,1.77.04.62.07,1.22.11,1.83.28,6.09.07,12.37-.14,13.09Z"/>
              <path class="cls-1" d="m75.44,64.77c-4.8,11.27-14.26,15.44-18.57,16.78l-2.41-14.65,17.61-9.93,2.54-1.3s.39,4.05.84,9.1Z"/>
            </g>
            <g>
              <path class="cls-2" d="m35.03,46.48c-1.74,25.99,13.63,29.97,19.24,30.34,5.09.34,22.46.83,26.87-24.84,4.42-25.67-7.12-34.7-18.72-36.08-11.6-1.38-25.65,4.59-27.39,30.59Z"/>
              <g>
                <path class="cls-1" d="m42.93,39.87c.61-.05,1.17-.2,1.77-.31.68-.12,1.23-.15,1.75-.66.28-.27.28-.84.04-1.13-.55-.68-1.42-.74-2.24-.62-.89.13-1.55.45-2.16,1.12-.59.64.03,1.66.84,1.6Z"/>
                <path class="cls-1" d="m60.98,38.78c-.61-.08-1.16-.26-1.75-.41-.67-.16-1.22-.22-1.71-.75-.26-.28-.23-.85.02-1.13.59-.65,1.46-.66,2.28-.49.89.18,1.52.54,2.1,1.24.56.67-.13,1.66-.93,1.55Z"/>
                <g>
                  <g>
                    <path class="cls-1" d="m56.95,47.79c.02-.07.13.09.13.16-.13,1.77.01,3.82,1.59,4.48.05.02.04.11-.02.1-1.94-.36-2.11-3.08-1.7-4.74Z"/>
                    <path class="cls-1" d="m58.61,46.01c2.86-.09,2.84,5.63.19,5.72-2.61.09-2.58-5.64-.19-5.72Z"/>
                  </g>
                  <path class="cls-1" d="m59.73,46.31c.5.33.99.9,1.59.96.7.07,1.23-.53,1.69-1.1.05-.06.1,0,.1.07.01,1.1-.41,2.22-1.59,2.38-1.07.15-1.84-.83-2.11-1.93-.05-.2.13-.51.33-.37Z"/>
                </g>
                <g>
                  <g>
                    <path class="cls-1" d="m46.12,46.48c-.01-.07-.14.08-.14.15.03,1.77-.23,3.81-1.84,4.38-.05.02-.05.11.01.1,1.96-.25,2.28-2.96,1.97-4.63Z"/>
                    <path class="cls-1" d="m44.56,44.61c-2.85-.25-3.15,5.46-.51,5.7,2.6.23,2.9-5.49.51-5.7Z"/>
                  </g>
                  <path class="cls-1" d="m43.35,44.92c-.47.28-.94.81-1.48.81-.63,0-1.06-.63-1.43-1.25-.04-.06-.09-.02-.09.06-.09,1.09.21,2.25,1.25,2.51.95.24,1.7-.66,2.02-1.73.06-.2-.08-.51-.27-.4Z"/>
                </g>
                <path class="cls-1" d="m55.2,61.55c-.41.43-.81,1.02-1.45,1.1-.61.08-1.35-.17-1.92-.37-.06-.02-.11.04-.07.09.49.66,1.47,1.05,2.29.87.8-.17,1.16-.88,1.33-1.62.02-.1-.11-.14-.17-.07Z"/>
                <path class="cls-1" d="m47.88,55.02s-.41,2.64-.43,3.89c0,.12.3.18.72.21.02,0,.03.01.05,0,2.2.38,4.43-.35,5.8-2.13.09-.12-.07-.25-.18-.18-1.67,1.18-3.49,1.47-5.45,1.47-.08-.35.85-4.5.65-4.52-.68-.07-2.03.37-2.85.6.69-5.53,2.26-10.9,2.87-16.42.02-.2-.26-.26-.32-.09-2.04,5.52-2.98,11.86-3.84,17.56-.11.71,2.47-.19,2.98-.39Z"/>
                <g>
                  <path class="cls-1" d="m48.58,58.65s1.09,1.68,2.68,2.36c.59.25,1.23.38,1.91.24,1.41-.28,1.53-1.55,1.34-2.66-.15-.91-.52-1.71-.52-1.71,0,0-2.15,1.77-5.41,1.78Z"/>
                  <path class="cls-4" d="m51.26,61c.59.25,1.23.38,1.91.24,1.41-.28,1.53-1.55,1.34-2.66-1.5.06-3.04.98-3.25,2.42Z"/>
                </g>
              </g>
              <g>
                <path class="cls-1" d="m80.03,57.49c-5.68-3.12-5.56-9.45-5.56-9.45-7.08-3.54-10.66-9.56-11.03-10.18.14.57,1.18,4.7,1.77,6.78-16.61-4.01-21.01-17.52-21.01-17.52-5.79,5.36-7.09,8.9-7.99,10.65,0,0,.52-10.64,6.24-17.52,7.01-8.42,15.76-6.36,15.76-6.36,0,0,13.3-3.41,22.75,8.43,10.18,12.77-.94,35.15-.94,35.15Z"/>
                <path class="cls-1" d="m52.61,41.19c2.58,1.68,5.5,2.86,8.42,3.66.02,0,.03-.03,0-.04-4.65-1.6-8.75-4.36-11.87-8.26-1.32-1.65-2.43-3.45-3.31-5.39-.92-2.03-1.79-4.44-1.84-6.71,0-.17-.26-.16-.26.01.05,2.4.12,4.62.92,6.89.76,2.16,1.92,4.19,3.39,5.91,1.31,1.54,2.86,2.84,4.54,3.93h0Z"/>
              </g>
              <g>
                <g>
                  <path class="cls-5" d="m76.21,38.81s.35-7.84-1.61-6.03c-1.96,1.82-1.9,3.72-1.9,3.72,0,0-2.58,1.72-2.16,2.74.41,1.02,4.28,1.51,4.76.96.48-.55.91-1.39.91-1.39Z"/>
                  <path class="cls-3" d="m76.21,38.81s-.43.84-.91,1.39c-.24.26-1.26.29-2.3.13.16-.61.42-1.43.71-2,.4-.78,1.85-1.27,2.52-1.47.02,1.1-.02,1.96-.02,1.96Z"/>
                </g>
                <g>
                  <path class="cls-5" d="m77.27,39.55s8.88-2.78,8.14.05c-.73,2.83-2.99,3.33-2.99,3.33,0,0-.19,3.52-1.67,3.34-1.48-.18-4.76-4.52-4.46-5.25.3-.73.97-1.48.97-1.48Z"/>
                  <path class="cls-3" d="m78.41,41.62c-.27.47-.8.89-1.32,1.2-.55-.82-.9-1.53-.79-1.79.3-.73.97-1.48.97-1.48,0,0,.58-.18,1.44-.41.08.58.15,1.68-.3,2.47Z"/>
                </g>
                <path class="cls-5" d="m77.79,41.06c-.64.97-1.95,1.24-2.92.6-.97-.64-1.24-1.95-.6-2.92.64-.97,1.95-1.24,2.92-.6.97.64,1.24,1.95.6,2.92Z"/>
              </g>
              <g>
                <path class="cls-2" d="m75.98,53.15s5.52-8.24,9.25-6.29c3.73,1.95-.31,13.82-4.61,15.52-4.3,1.7-5.95-2.25-5.95-2.25l1.31-6.98Z"/>
                <path class="cls-1" d="m83.99,50.23c.07,0,.08.09.03.12-3.01,1.29-4.56,4.14-5.62,7.08.88-1.14,2.1-1.78,3.63-.74.08.05,0,.18-.08.16-1.25-.24-2.14,0-2.96,1-.58.72-.97,1.62-1.38,2.44-.14.27-.63.14-.53-.18,0-.02.02-.05.02-.07-.15-3.87,2.75-9.35,6.9-9.82Z"/>
              </g>
            </g>
          </g>
        </g>
      </g>
    </g>
  </g>
</svg>