<?xml version="1.0" encoding="UTF-8"?>
<svg id="Layer_2" data-name="Layer 2" xmlns="http://www.w3.org/2000/svg" xmlns:xlink="http://www.w3.org/1999/xlink" viewBox="0 0 123.71 123.71">
  <defs>
    <style>
      .cls-1 {
        fill: #3c3575;
      }

      .cls-2 {
        fill: #e6a2b5;
      }

      .cls-3 {
        fill: #eb9481;
      }

      .cls-4 {
        fill: #f2e0d8;
      }

      .cls-5 {
        clip-path: url(#clippath);
      }

      .cls-6 {
        fill: none;
      }
    </style>
    <clipPath id="clippath">
      <circle class="cls-6" cx="61.85" cy="61.85" r="61.85"/>
    </clipPath>
  </defs>
  <g id="OBJECTS">
    <g>
      <circle class="cls-4" cx="61.85" cy="61.85" r="61.85"/>
      <g class="cls-5">
        <g>
          <path class="cls-2" d="m120.98,208.08H13.93c-.45-4.09,15.95-91.08,35.21-119.05,2.19-3.17,20.9-5.48,27.78,2.41,36.4,41.8,44.94,115.63,44.06,116.63Z"/>
          <g>
            <path class="cls-3" d="m46.6,96.26c-3.04,7.87-14.5,35.47-20.73,55.28-4.18,13.29-5.77,24.45-6.69,27.38,0,0,31.61-10.15,38.73-10.17,10.96-.03,28.54,22.86,24.23,25.73-6.78,4.51-39.1,19.85-64.91,24.66-14.03,2.62-40.46-15.21-38.37-29.39,2.93-19.9,38.88-72.34,52.56-87.21,7.1-7.72,18.88-15.87,15.18-6.28Z"/>
            <g>
              <path class="cls-2" d="m-23.07,193.95c.66,14.33,18.59,26.4,28.99,27.03,17.93,1.09,71.73-14.58,71.73-14.58l-20.91-40.29s-36.6,12.42-37.53,12.77v-.02c.32-1.07,9.34-34.96,13.38-46.2.22-.62.46-1.25.7-1.92,1.16-3.11,2.75-7.22,4.51-11.66l.02-.03c.97-2.46,2-5.02,3.02-7.56v-.02c4.42-10.98,8.73-21.43,8.73-21.43-6.16,1.01-12.25,4.25-22.24,14.74-9.97,10.47-51.47,65.51-50.38,89.15Z"/>
              <path class="cls-1" d="m8.01,184.84l11.18-5.93.02-.02v-.02c.32-1.07,9.34-34.96,13.38-46.2.22-.62.46-1.25.7-1.92,1.16-3.11,2.75-7.22,4.51-11.66l-29.78,65.73Z"/>
            </g>
          </g>
          <g>
            <path class="cls-3" d="m6.89,181.08c2.81.04,19.74-4.49,22.21-2.16,15.03,14.17,19.79,11.32,22.99,13.16,24.77,14.25,57.85,30.99,69.66,31.1,17.91.15,25.04-14.88,22.06-29.08-5.88-28.07-43.74-82.8-60.87-97.34-9.08-7.7-8.36,3.91-4.61,16.54,2.2,7.4,6.06,18.41,9.99,29.21,3.48,9.62,12.71,34.2,12.87,34.78v.02s.03.05.03.07c.01.07-.05.08-.2.04-.79-.14-21.97-10.13-43.27-15.61-7.51-1.93-23.14-4.69-28.74-2.18-3.33,1.49-3.39,3.48-3.39,3.48,0,0-2.67-.24-5.49,2.08-1.87,1.54-2.45,3.72-2.45,3.72,0,0-2.92.41-4.44,2.1-1.81,2.02-1.97,4.16-1.97,4.16-3.94,1.05-4.36,5.93-4.36,5.93Z"/>
            <path class="cls-2" d="m73.59,166.06c-3.92-1.33-5.69-1.33-5.69-1.33l-22.29,37.64s61.39,22.1,73.99,23.39c12.6,1.29,26.94-8.63,27.18-24.46.34-22.24-35.93-75.65-54.17-96.3-8.36-9.47-18.11-16.34-20.6-14.79-2.94,1.83,2.4,13.73,5.21,22.61,5.19,16.39,23.78,64.59,23.78,64.59,0,0-22.75-9.77-27.42-11.35Z"/>
          </g>
          <g>
            <g>
              <path class="cls-3" d="m51.17,104.82c5.77,2.07,16.97-5.83,21.82-12.71.33-.47.16-5.87.26-12.43.08-3.98.26-8.41.72-12.44l-25.98,3.27s1.53,8.73.69,15.76c-.08.59-.2,1.13-.36,1.63-.02.07-.05.16-.07.27-.87,3.08-2.65,14.64,2.93,16.65Z"/>
              <path class="cls-1" d="m48.24,88.16c-.05.17-.1.35-.13.57,15.56-.66,21.47-7.5,25.3-14.06.12-2.5.28-5.04.57-7.44l-25.99,3.27s1.53,8.74.68,15.76c-.07.58-.2,1.12-.37,1.63-.02.07-.03.17-.07.27Z"/>
            </g>
            <g>
              <path class="cls-3" d="m81,34.92c2.73,9.03-2.12,35.09-8.56,40.88-9.33,8.4-24.57,9.15-31.69-2.05-6.91-10.86.01-44.7,7.2-49.96,10.58-7.75,29.02-2.2,33.05,11.14Z"/>
              <g>
                <g>
                  <path class="cls-1" d="m58.83,49.52c.03-.06.12.11.11.18-.37,1.75-.51,3.81.98,4.68.05.03.02.11-.03.1-1.89-.62-1.68-3.36-1.05-4.96Z"/>
                  <path class="cls-1" d="m60.73,47.97c2.86.3,2.06,6-.59,5.73-2.61-.27-1.81-5.98.59-5.73Z"/>
                </g>
                <g>
                  <path class="cls-1" d="m48.06,47.9c0-.07-.15.06-.16.14-.19,1.78-.71,3.78-2.39,4.14-.05.01-.06.1,0,.1,1.99,0,2.65-2.66,2.55-4.37Z"/>
                  <path class="cls-1" d="m46.74,45.83c-2.81-.62-3.84,5.05-1.23,5.62,2.56.56,3.59-5.11,1.23-5.62Z"/>
                </g>
                <path class="cls-1" d="m63.35,45.68c-.75-.31-1.39-.71-2.1-1.09-.8-.43-1.48-.68-1.93-1.52-.24-.45-.01-1.16.4-1.43.96-.64,2.07-.36,3.06.12,1.07.52,1.76,1.19,2.26,2.26.49,1.04-.7,2.07-1.69,1.67Z"/>
                <path class="cls-1" d="m44.94,42.65c.81-.02,1.55-.17,2.35-.27.9-.11,1.63-.11,2.35-.73.38-.33.43-1.08.14-1.48-.67-.94-1.81-1.07-2.9-.98-1.18.1-2.07.48-2.92,1.3-.83.8-.08,2.19.99,2.16Z"/>
                <path class="cls-1" d="m57.83,65.31c-.35.49-.67,1.13-1.3,1.29-.6.16-1.37,0-1.97-.11-.06-.01-.11.06-.06.1.58.59,1.61.85,2.4.56.77-.28,1.04-1.04,1.11-1.8,0-.11-.13-.12-.18-.05Z"/>
                <path class="cls-1" d="m56.06,60.26c-1.21,1.39-2.78,2.03-4.39,2.11-.72.04-1.46-.04-2.18-.21-.14-.02-.28-.06-.41-.11-.13-.03-.24-.07-.38-.11-.2-.06-.29-.25-.3-.45h0c.01-.08.02-.13.04-.19h0s.02-.17.02-.17c.15-1.37.58-3.42.58-3.42-.53.18-3.23.96-3.09.26,1.18-5.84,2.49-12.33,4.9-17.88.07-.19.36-.1.32.09-.91,5.65-2.81,11.11-3.82,16.77.85-.19,2.25-.58,2.96-.46.19.08-.89,3.95-.91,4.57,0,0,0,.03,0,.07,2.24.61,4.07.17,6.5-1.06.15-.08.27.06.14.18Z"/>
                <g>
                  <path class="cls-1" d="m50.42,62.25s1.1,1.67,2.69,2.34c.59.25,1.23.37,1.92.23,1.41-.29,1.52-1.56,1.32-2.67-.16-.91-.53-1.71-.53-1.71,0,0-2.14,1.79-5.4,1.8Z"/>
                  <path class="cls-2" d="m53.11,64.6c.59.25,1.23.37,1.92.23,1.41-.29,1.52-1.56,1.32-2.67-1.5.07-3.03,1-3.24,2.44Z"/>
                </g>
              </g>
              <g>
                <path class="cls-1" d="m79.13,54.66c-4.96.11-4.8-8.53-4.8-8.53,0,0-9.94-1.42-11.09-14.23,0,0-14.3,5.12-21.79-2.23-7.49-7.35,12.06-25.9,35.15-8.76,0,0,10.89,1.77,12.63,10.64,1.74,8.87-4.11,22.98-10.1,23.11Z"/>
                <path class="cls-1" d="m63.57,30.44c.06-.13.26-.07.24.07-1.54,8.5,3.99,16.19,13.05,15.52.3-.02.36.42.06.47-8.95,1.57-17.34-7.31-13.35-16.06Z"/>
                <path class="cls-1" d="m55.39,13.84s.02.03,0,.03c-3.04.45-6.15,1-8.94,2.36-4.19,2.03-9.64,7.24-6.64,12.3,4.12,6.95,14.65,4.95,21.08,3.22.42-.11.67.46.26.65-6.46,2.96-19.96,3.9-22.79-4.63-3.14-9.45,10.31-13.68,17.03-13.92Z"/>
              </g>
              <g>
                <path class="cls-3" d="m75.36,56.15s6.09-8.29,9.86-6.1c3.78,2.19-.94,14.3-5.47,15.87-4.53,1.57-6.06-2.6-6.06-2.6l1.67-7.17Z"/>
                <path class="cls-1" d="m83.78,53.49c.07,0,.08.1.02.12-3.18,1.2-4.9,4.08-6.13,7.08.96-1.14,2.25-1.75,3.79-.6.08.06,0,.19-.09.17-1.28-.31-2.22-.1-3.11.91-.63.72-1.08,1.63-1.54,2.47-.15.28-.66.12-.54-.21,0-.02.02-.05.03-.07.01-4.02,3.26-9.56,7.58-9.86Z"/>
              </g>
            </g>
          </g>
          <path class="cls-1" d="m46.29,93.87c.01-.06.1-.05.09.01-.55,5.57-1.45,18.51,7.34,18.04,3.54-.19,6.84-2.28,9.6-4.34,2.84-2.12,5.39-4.6,7.71-7.27,2.57-2.96,5.22-6.08,7.27-9.43.09-.14.3.02.21.16-2.2,3.34-4.06,6.82-6.58,9.96-2.43,3.01-5.17,5.8-8.32,8.06-2.96,2.11-6.46,4.19-10.2,4.21-3.56.02-6.07-2.27-6.99-5.59-1.21-4.36-.96-9.41-.12-13.81Z"/>
          <g>
            <path class="cls-4" d="m48.06,88.39l6.91,15.23,18.4-20.46,5.74,6.05s-17.47,31.99-17.65,30.59l-6.98-13.08-8.81,9.7-.28-23.37,2.68-4.66Z"/>
            <path class="cls-1" d="m44.87,104.88c.08-3.86.06-7.75.32-11.6,0-.14.22-.21.26-.05.94,3.68.54,18.44.71,21.97.01-.01.03-.03.04-.04.37-.42,8.19-8.56,8.27-8.44,1.48,2.06,6.6,11.58,6.96,12.46,2.76-5.08,13.39-23.58,16.71-28.41.1-.14.31-.04.24.12-2.4,5.34-16.45,30.24-16.68,30.18-.15.13-6.51-11.6-7.3-13.83-1.31,1.76-9.16,10.9-9.21,10.32-.36-3.85-.39-8.82-.31-12.68Z"/>
          </g>
        </g>
      </g>
    </g>
  </g>
</svg>