<?xml version="1.0" encoding="UTF-8"?>
<svg id="Layer_2" data-name="Layer 2" xmlns="http://www.w3.org/2000/svg" xmlns:xlink="http://www.w3.org/1999/xlink" viewBox="0 0 123.71 123.71">
  <defs>
    <style>
      .cls-1 {
        fill: #3c3575;
      }

      .cls-2 {
        fill: #bb4d9b;
      }

      .cls-3 {
        fill: #c95f50;
      }

      .cls-4 {
        fill: #6f84f0;
      }

      .cls-5 {
        fill: #f2e0d8;
      }

      .cls-6 {
        clip-path: url(#clippath);
      }

      .cls-7 {
        fill: none;
      }
    </style>
    <clipPath id="clippath">
      <circle class="cls-7" cx="61.85" cy="61.85" r="61.85"/>
    </clipPath>
  </defs>
  <g id="OBJECTS">
    <g>
      <circle class="cls-5" cx="61.85" cy="61.85" r="61.85"/>
      <g class="cls-6">
        <g>
          <g>
            <path class="cls-1" d="m120.98,209.76H13.93c-.45-4.09,15.95-91.08,35.21-119.04,2.19-3.17,20.9-5.48,27.78,2.41,36.4,41.8,44.94,115.63,44.06,116.63Z"/>
            <g>
              <path class="cls-2" d="m79.21,95.85h-33.23c.09-.16.18-.32.28-.48h32.56l.39.48Z"/>
              <path class="cls-2" d="m86.3,105.44h-45c.07-.16.14-.32.22-.48h44.46c.11.16.22.32.32.48Z"/>
              <path class="cls-2" d="m92.22,115.04h-54.79l.18-.48h54.34l.27.48Z"/>
            </g>
          </g>
          <g>
            <path class="cls-3" d="m46.6,97.93c-3.04,7.87-14.5,35.47-20.73,55.28-4.18,13.29-5.77,24.45-6.69,27.38,0,0,31.61-10.15,38.73-10.17,10.96-.03,28.54,22.86,24.23,25.73-6.78,4.51-39.1,19.85-64.91,24.66-14.03,2.62-40.46-15.21-38.37-29.39,2.93-19.9,38.88-72.34,52.56-87.21,7.1-7.72,18.88-15.87,15.18-6.28Z"/>
            <g>
              <path class="cls-1" d="m-23.07,195.62c.66,14.33,18.59,26.4,28.99,27.03,17.93,1.09,71.73-14.58,71.73-14.58l-20.91-40.29s-36.6,12.42-37.53,12.77v-.02c.32-1.07,9.34-34.96,13.38-46.2.22-.62.46-1.25.7-1.92,1.16-3.11,2.75-7.22,4.51-11.66l.02-.03c.97-2.46,2-5.02,3.02-7.56v-.02c4.42-10.98,8.73-21.43,8.73-21.43-6.16,1.01-12.25,4.25-22.24,14.74-9.97,10.47-51.47,65.51-50.38,89.15Z"/>
              <g>
                <path class="cls-2" d="m48.06,95.37c-.07.16-.13.32-.2.48h-8.45l.75-.48h7.9Z"/>
                <path class="cls-2" d="m44.14,104.96c-.06.16-.13.32-.19.48h-15.63c.15-.17.31-.32.47-.48h15.35Z"/>
                <path class="cls-2" d="m40.27,114.56c-.06.16-.12.32-.19.48h-20.01c.13-.16.26-.32.38-.48h19.82Z"/>
              </g>
              <path class="cls-2" d="m8.01,186.51l11.18-5.93.02-.02v-.02c.32-1.07,9.34-34.96,13.38-46.2.22-.62.46-1.25.7-1.92,1.16-3.11,2.75-7.22,4.51-11.66l-29.78,65.73Z"/>
            </g>
          </g>
          <g>
            <path class="cls-3" d="m6.89,182.75c2.81.04,19.74-4.49,22.21-2.16,15.03,14.17,19.79,11.32,22.99,13.16,24.77,14.25,57.85,30.99,69.66,31.1,17.91.15,25.04-14.88,22.06-29.08-5.88-28.07-43.74-82.8-60.87-97.34-9.08-7.7-8.36,3.91-4.61,16.54,2.2,7.4,6.06,18.41,9.99,29.21,3.48,9.62,12.71,34.2,12.87,34.78v.02s.03.05.03.07c.01.07-.05.08-.2.04-.79-.14-21.97-10.13-43.27-15.61-7.51-1.93-23.14-4.69-28.74-2.18-3.33,1.49-3.39,3.48-3.39,3.48,0,0-2.67-.24-5.49,2.08-1.87,1.54-2.45,3.72-2.45,3.72,0,0-2.92.41-4.44,2.1-1.81,2.02-1.97,4.16-1.97,4.16-3.94,1.05-4.36,5.93-4.36,5.93Z"/>
            <g>
              <path class="cls-1" d="m73.59,167.73c-3.92-1.33-5.69-1.33-5.69-1.33l-22.29,37.64s61.39,22.1,73.99,23.39c12.6,1.29,26.94-8.63,27.18-24.46.34-22.24-35.93-75.65-54.17-96.3-8.36-9.47-18.11-16.34-20.6-14.79-2.94,1.83,2.4,13.73,5.21,22.61,5.19,16.39,23.78,64.59,23.78,64.59,0,0-22.75-9.77-27.42-11.35Z"/>
              <g>
                <path class="cls-2" d="m81.09,95.85h-9.77c-.03-.17-.05-.33-.07-.48h9.18c.22.15.44.32.66.48Z"/>
                <path class="cls-2" d="m91.51,105.44h-17.41c-.05-.16-.11-.32-.16-.48h17.13c.15.16.3.32.44.48Z"/>
                <path class="cls-2" d="m99.58,115.04h-22.18c-.05-.17-.1-.33-.15-.48h21.95c.12.16.25.32.38.48Z"/>
              </g>
            </g>
          </g>
          <g>
            <g>
              <path class="cls-3" d="m51.17,106.49c5.77,2.07,16.97-5.83,21.82-12.71.33-.47.16-5.87.26-12.43.08-3.98.26-8.41.72-12.44l-25.98,3.27s1.53,8.73.69,15.76c-.08.59-.2,1.13-.36,1.63-.02.07-.05.16-.07.27-.87,3.08-2.65,14.64,2.93,16.65Z"/>
              <path class="cls-1" d="m48.24,89.84c-.05.17-.1.35-.13.57,15.56-.66,21.47-7.5,25.3-14.06.12-2.5.28-5.04.57-7.44l-25.99,3.27s1.53,8.74.68,15.76c-.07.58-.2,1.12-.37,1.63-.02.07-.03.17-.07.27Z"/>
            </g>
            <g>
              <g>
                <path class="cls-2" d="m55.59,50.29c-.92,6.61-6.37,11.32-12.17,10.51-5.8-.81-9.76-6.82-8.84-13.43.92-6.61,6.37-11.32,12.17-10.51,5.8.81,9.76,6.82,8.84,13.43Z"/>
                <path class="cls-4" d="m58.93,51.18c-1.02,7.35-7.08,12.59-13.54,11.69-6.45-.9-10.85-7.59-9.83-14.94,1.02-7.35,7.08-12.59,13.54-11.69,6.45.9,10.85,7.59,9.83,14.94Z"/>
              </g>
              <path class="cls-3" d="m81,36.59c2.73,9.03-2.12,35.09-8.56,40.88-9.33,8.4-24.57,9.15-31.69-2.05-6.91-10.86.01-44.7,7.2-49.96,10.58-7.75,29.02-2.2,33.05,11.14Z"/>
              <g>
                <g>
                  <path class="cls-1" d="m58.83,51.19c.03-.06.12.11.11.18-.37,1.75-.51,3.81.98,4.68.05.03.02.11-.03.1-1.89-.62-1.68-3.36-1.05-4.96Z"/>
                  <path class="cls-1" d="m60.73,49.64c2.86.3,2.06,6-.59,5.73-2.61-.27-1.81-5.98.59-5.73Z"/>
                </g>
                <g>
                  <path class="cls-1" d="m48.06,49.57c0-.07-.15.06-.16.14-.19,1.78-.71,3.78-2.39,4.14-.05.01-.06.1,0,.1,1.99,0,2.65-2.66,2.55-4.37Z"/>
                  <path class="cls-1" d="m46.74,47.5c-2.81-.62-3.84,5.05-1.23,5.62,2.56.56,3.59-5.11,1.23-5.62Z"/>
                </g>
                <path class="cls-1" d="m63.35,47.35c-.75-.31-1.39-.71-2.1-1.09-.8-.43-1.48-.68-1.93-1.52-.24-.45-.01-1.16.4-1.43.96-.64,2.07-.36,3.06.12,1.07.52,1.76,1.19,2.26,2.26.49,1.04-.7,2.07-1.69,1.67Z"/>
                <path class="cls-1" d="m44.94,44.32c.81-.02,1.55-.17,2.35-.27.9-.11,1.63-.11,2.35-.73.38-.33.43-1.08.14-1.48-.67-.94-1.81-1.07-2.9-.98-1.18.1-2.07.48-2.92,1.3-.83.8-.08,2.19.99,2.16Z"/>
                <path class="cls-1" d="m57.17,67.49c-.48.35-.98.86-1.63.83-.62-.03-1.3-.41-1.84-.71-.05-.03-.12.02-.09.08.36.74,1.27,1.3,2.11,1.28.82-.03,1.31-.66,1.61-1.37.04-.1-.09-.16-.16-.1Z"/>
                <path class="cls-1" d="m56.06,61.93c-1.21,1.39-2.78,2.03-4.39,2.11-.72.04-1.46-.04-2.18-.21-.14-.02-.28-.06-.41-.11-.13-.03-.24-.07-.38-.11-.2-.06-.29-.25-.3-.45h0c.01-.08.02-.13.04-.19h0s.02-.17.02-.17c.15-1.37.58-3.42.58-3.42-.53.18-3.23.96-3.09.26,1.18-5.84,2.49-12.33,4.9-17.88.07-.19.36-.1.32.09-.91,5.65-2.81,11.11-3.82,16.77.85-.19,2.25-.58,2.96-.46.19.08-.89,3.95-.91,4.57,0,0,0,.03,0,.07,2.24.61,4.07.17,6.5-1.06.15-.08.27.06.14.18Z"/>
              </g>
              <g>
                <path class="cls-1" d="m80.81,54.48c-1.63-.98-4.35-6.83-5.57-9.23-1.27-2.49-.16-13.5.24-16.79,2.53,2.14,4.49,4.92,5.52,8.22,1.17,3.76.96,10.75-.19,17.79Z"/>
                <g>
                  <path class="cls-1" d="m50.12,32c1.58,2.94,4.55,4.92,7.91,5.12,3.27.19,6.88-1.29,8.69-4.09.05-.08.18,0,.13.08-1.94,3-5.18,5.1-8.86,4.79-3.45-.29-6.7-2.62-8.08-5.79-.06-.14.14-.25.21-.11Z"/>
                  <path class="cls-1" d="m65.07,10.88c5.44,1.34,9.79,5.48,10.96,9.65.71,2.53.38,4.87-.51,7.13-.04.09-.23.03-.2-.07,1.14-3.63.25-8.26-3.14-11.73-3.26-3.33-8.14-5.23-12.9-4.54-2.48.36-4.66,1.4-6,2.95-.15.17-.53-.05-.4-.23,2.24-3.08,7.26-4.38,12.18-3.17Z"/>
                  <path class="cls-1" d="m30.67,15.66c1.46-2.5,3.86-4.39,6.58-5.34,3.82-1.33,7.54-.18,11.22,1.04.1.03.05.19-.05.16-3.13-1.03-6.37-1.89-9.66-1.04-2.68.69-5.14,2.3-6.77,4.55-3.37,4.67-2.7,11.55,1.59,15.42,2.43,2.19,5.79,3.31,9.05,3,.13-.01.18.18.05.2-5.99.72-11.96-3.27-13.28-9.21-.65-2.94-.26-6.16,1.27-8.77Z"/>
                  <path class="cls-1" d="m81.6,42.58s7.33-8.65,4.23-15.27c-1.76-3.75-10.02-5.11-10.02-5.11,0,0-1.61-5.27-8.04-8.3-6.5-3.06-15.5-.83-15.5-.83,0,0-5.68-5.13-12.53-2.98-9.54,3-11.29,16.15-3.66,22.16,5.36,4.22,14.66.69,14.66.69.76.28,7.72,6.86,15.34,1.02,0,0,3.97,5.45,9.06,3.35,0,0,1.27,4.93,6.46,5.27Z"/>
                </g>
              </g>
              <g>
                <path class="cls-3" d="m75.36,57.82s6.09-8.29,9.86-6.1c3.78,2.19-.94,14.3-5.47,15.87-4.53,1.57-6.06-2.6-6.06-2.6l1.67-7.17Z"/>
                <path class="cls-1" d="m83.78,55.16c.07,0,.08.1.02.12-3.18,1.2-4.9,4.08-6.13,7.08.96-1.14,2.25-1.75,3.79-.6.08.06,0,.19-.09.17-1.28-.31-2.22-.1-3.11.91-.63.72-1.08,1.63-1.54,2.47-.15.28-.66.12-.54-.21,0-.02.02-.05.03-.07.01-4.02,3.26-9.56,7.58-9.86Z"/>
              </g>
              <g>
                <path class="cls-4" d="m83.8,48.19s3.62-12.33.88-21.01c-3.04-9.66-17.42-21.12-32.41-14.12,0,0,18.86-.36,26.63,13.7,3.28,5.92.04,20.92.04,20.92l4.85.51Z"/>
                <path class="cls-4" d="m69.04,52.95c-1.43,7.29,2.6,14.21,8.99,15.46,6.39,1.25,12.73-3.64,14.16-10.93,1.43-7.29-2.6-14.21-8.99-15.46-6.39-1.25-12.73,3.64-14.16,10.93Z"/>
                <path class="cls-2" d="m72.49,53.19c-1.28,6.55,2.33,12.77,8.08,13.9,5.75,1.13,11.45-3.27,12.73-9.82,1.28-6.55-2.33-12.77-8.08-13.9s-11.45,3.27-12.73,9.82Z"/>
              </g>
            </g>
          </g>
        </g>
      </g>
    </g>
  </g>
</svg>