<?xml version="1.0" encoding="UTF-8"?>
<svg id="Layer_2" data-name="Layer 2" xmlns="http://www.w3.org/2000/svg" xmlns:xlink="http://www.w3.org/1999/xlink" viewBox="0 0 123.71 123.71">
  <defs>
    <style>
      .cls-1 {
        fill: #3c3575;
      }

      .cls-2 {
        fill: #e6a2b5;
      }

      .cls-3 {
        fill: #f2e0d8;
      }

      .cls-4 {
        clip-path: url(#clippath);
      }

      .cls-5 {
        fill: none;
      }

      .cls-6 {
        fill: #ffc4c0;
      }
    </style>
    <clipPath id="clippath">
      <circle class="cls-5" cx="61.85" cy="61.85" r="61.85"/>
    </clipPath>
  </defs>
  <g id="OBJECTS">
    <g>
      <circle class="cls-3" cx="61.85" cy="61.85" r="61.85"/>
      <g class="cls-4">
        <g>
          <g>
            <path class="cls-1" d="m18.35,124.39c.93.06,5.3.36,11.68.81,2.42-3.97,5.37-11.05,4.71-21.3-.12-1.7,3.43,8.18,1.22,21.72,12.33.86,29.1,2.02,43.76,2.9.55-5.71,1.31-10.99,1.31-10.99.31,4.15,1.03,7.92,1.88,11.19,2,.14,3.97.23,5.85.34-.02-8.91,2.2-24.34,2.2-24.34.83,10.84,3.88,19.6,6.13,24.79,9.31.46,15.45.59,15.07.13-13.35-16.8-2.61-25.63-5.96-40.04-4.03-17.27-18.6-20.65-17.58-33.43.8-10.4,2.97-29.25-10.01-33.89,0,0-10.17-12.21-27.28-6.53-21.16,7.01-14.4,39.52-16.12,45.99-2.45,9.24-7.04,12.33-10.84,22.82-3.88,10.62.7,18,.93,25.33.19,7.32-9.29,14.36-6.96,14.49Z"/>
            <path class="cls-1" d="m112.69,127.35c-1.75-2.97-3.28-6.09-4.11-9.33-.92-3.22-.31-6.46.49-9.78.79-3.31,1.71-6.69,2.18-10.22.43-3.52.47-7.23-.54-10.77-.95-3.55-2.82-6.81-5.19-9.5-2.34-2.73-5.06-4.96-7.69-7.16-2.6-2.23-5.19-4.42-7.09-7.19-1.94-2.73-3.05-6.03-3.31-9.48-.3,3.44.46,7.05,2.24,10.15,1.75,3.12,4.28,5.67,6.79,8.05,2.51,2.39,5.04,4.67,7.12,7.25,2.07,2.57,3.69,5.45,4.48,8.59.8,3.13.92,6.44.53,9.75-.34,3.32-1.12,6.65-1.72,10.09-.29,1.72-.56,3.48-.58,5.29-.03,1.82.34,3.68.94,5.35,1.27,3.34,3.17,6.31,5.45,8.92Z"/>
            <path class="cls-1" d="m39.03,27.16c-1.8,3.88-2.6,8.13-3.4,12.3-.72,4.2-1.24,8.43-1.71,12.64l-.74,6.29c-.25,2.1-.61,4.07-1.23,5.98-1.21,3.85-3.55,7.16-6.17,10.5-1.27,1.7-2.57,3.47-3.65,5.41-1.08,1.93-1.97,3.99-2.6,6.12-.57,2.16-.97,4.28-1.21,6.46-.25,2.18-.23,4.42.06,6.6.28,2.19.8,4.27,1.22,6.31.43,2.03.67,4.11.69,6.16.13,4.07-2.2,8.02-5.6,10.52,3.74-1.99,6.59-5.97,6.92-10.47.16-2.18.03-4.36-.25-6.5-.27-2.14-.71-4.2-.85-6.24-.32-4.03.38-8.19,1.52-12.08.64-1.92,1.42-3.77,2.44-5.53,1-1.76,2.23-3.41,3.52-5.08,1.26-1.69,2.58-3.42,3.72-5.32,1.14-1.89,2.11-3.93,2.74-6.08.62-2.14.95-4.37,1.13-6.49.22-2.13.35-4.25.48-6.37.28-4.23.51-8.45.9-12.66.35-4.21.85-8.4,2.06-12.48Z"/>
          </g>
          <g>
            <g>
              <g>
                <path class="cls-6" d="m41.81,95.13c-26.22,29.49-57.96,90.32-50.85,101.94,7.92,12.95,45.75-29.05,44.45-30.95-1.1-1.62,11.19-38,20.12-64.61,8.92-26.58-7.23-13.68-13.72-6.38Z"/>
                <g>
                  <path class="cls-2" d="m41.81,95.13c-26.22,29.49-57.96,90.32-50.85,101.94,7.92,12.95,45.75-29.05,44.45-30.95-1.1-1.62,11.19-38,20.12-64.61,8.92-26.58-7.23-13.68-13.72-6.38Z"/>
                  <g>
                    <path class="cls-3" d="m35.25,127.87c2.01-.37,4.82,1.71,6.17,3.31,1.08,1.26,2,2.66,2.88,4.05.05-.17.11-.34.17-.52-.83-1.29-1.71-2.61-2.73-3.81-1.31-1.56-4.27-3.86-6.57-3.44-1.1.2-1.9.98-2.39,2.35-1.39,3.89,3.16,7.89,7.2,10.57.72.48,1.46.92,2.21,1.32.04-.14.09-.27.13-.41-.71-.38-1.41-.81-2.1-1.27-7.11-4.69-7.76-8.07-7.05-10.07.44-1.21,1.14-1.91,2.08-2.08Zm18.06-23.34c-.63-.74-1.51-1.06-2.59-.93-1.28.15-2.23.82-2.96,1.74-1.86,2.36-2.18,6.44-2.24,7.98-.16,4.67.26,9.24,1.26,13.59.01.06.02.11.03.15.02.11.04.22.07.33.09-.27.18-.54.26-.81-.96-4.25-1.36-8.7-1.2-13.24.07-2.07.63-8.83,4.83-9.32.93-.11,1.68.15,2.22.79.39.46.65,1.09.83,1.8.08-.24.16-.47.24-.71-.19-.52-.43-.99-.75-1.37Z"/>
                    <path class="cls-3" d="m39.89,114.18c-.4-1.93-.87-3.64-1.46-5.19-.55-1.47-1.99-3.9-3.69-4.61-.15-.06-.3-.11-.45-.14l-.24.3c.19.03.37.08.56.16,1.59.67,2.96,3,3.49,4.41,1.15,3.07,1.91,6.78,2.38,11.72l-.44-2.39-.02-.04c-.86-2.09-2.46-3.74-3.99-5.33-1-1.03-2.04-2.1-2.88-3.29-.47-.69-.96-1.61-1.19-2.48-.09.11-.17.23-.26.35.34,1.09.99,2.06,1.17,2.33.85,1.21,1.89,2.29,2.91,3.34,1.5,1.56,3.07,3.17,3.92,5.2l.44,2.37c.03.18.19.3.37.26.17-.02.33-.17.3-.38-.22-2.48-.53-4.64-.92-6.59Z"/>
                  </g>
                </g>
              </g>
              <g>
                <path class="cls-2" d="m16.52,210.52l6.58-44.61s-10.55-18.43-4.43-31.65c3.09-6.7,24.28-39.43,35.7-47.72,10.71-7.77,25.38-.68,30.37,6.08,14.35,19.44,21.34,54.44,29.35,117.9H16.52Z"/>
                <path class="cls-1" d="m35.72,107.11c-2.17,2.97-4.27,5.99-6.34,9.03.56-1.18,1.13-2.37,1.69-3.55.04-.09-.09-.16-.13-.07-.77,1.49-1.48,3-2.17,4.51-2.76,4.09-5.45,8.24-8.03,12.44-1.1,1.78-2.11,3.6-2.85,5.56-.72,1.9-1.16,3.9-1.4,5.92-.24,2.02-.25,4.05-.1,6.07.16,2.09.41,4.15.88,6.2.53,2.3,1.25,4.6,2.18,6.77.46,1.07.95,2.13,1.47,3.16.48.94,1.46,2.88,1.45,2.95-.2,1.07-.4,1.82-.53,2.72-.14.92-.28,1.83-.41,2.75-.28,1.83-2.65,19.65-2.92,21.48-.53,3.64-.99,7.28-1.44,10.93-.26,2.09-.4,4.21-.69,6.29-.01.08.12.12.13.03.3-1.82.75-3.61,1.08-5.43.33-1.82.67-3.63,1.01-5.45.69-3.67,3.34-23.36,3.91-27.04.16-1.02.32-2.04.48-3.06.16-1.01.43-2.38.39-3.4,0,0-3.27-6.71-4.54-11.42-.53-1.98-1.08-4.03-1.3-6.07-.22-2-.24-4.02-.07-6.03.16-2.01.54-4,1.16-5.92.64-1.98,1.55-3.82,2.56-5.63,2.13-3.79,4.4-7.51,6.7-11.2,2.61-4.19,5.24-8.36,7.94-12.48.05-.07-.06-.13-.11-.06Z"/>
                <g>
                  <path class="cls-3" d="m98.05,186.49c-.18-1.2-.9-2.11-2.13-2.7-3.81-1.83-8.1,2.35-9.84,4.83-1.94,2.77-3.18,6.18-3.88,10.65-.51-3.38-1.38-6.7-2.2-9.56-.6-2.12-1.34-4.29-2.16-6.44.06-2.36,1.03-4.61,1.96-6.78.13-.3.24-.59.37-.89,1.22-2.87,1.82-5.38,1.9-7.89.11-3.64-.69-10.67-4.6-11.28-1.01-.15-1.8.07-2.38.67-1.21,1.28-1.35,4.23-.4,8.74.81,3.77,1.18,6.6,1.23,9.47.02,1.13.05,2.39.16,3.67-1.37-3.09-2.98-6.29-4.79-9.54-.01-.13-.07-.25-.18-.33-.48-.85-1.01-1.77-1.66-2.9-.56-.94-1.09-1.82-1.62-2.64-.15-3.94,2.43-6.79,5.18-9.8,1.76-1.93,3.58-3.92,4.57-6.22.98-2.25,1.32-7.07-.35-9.83-.75-1.25-1.82-1.93-3.17-2.04-2-.15-3.31,1.49-3.84,2.95-.35.97-.39,2.01-.42,3-.02.36-.03.72-.07,1.07-.11,1.59-.45,3.29-1.05,5.33-.21.72-.43,1.45-.65,2.2-1.09,3.55-2.22,7.21-1.84,10.77-1.13-1.76-2.3-3.51-3.45-5.21-1.54-2.29-3.11-4.64-4.6-7,.28-.96.52-1.92.77-2.86.46-1.84.94-3.73,1.69-5.54.29-.67.58-1.35.88-2.03.73-1.64,1.48-3.35,1.99-5.11,1.11-3.87,1.17-8.79-2.36-9.93-1.27-.42-2.42-.25-3.39.48-1.67,1.26-2.49,4.03-2.44,6.12.07,2,.37,4.03.67,6,.19,1.19.37,2.41.5,3.61.22,2.15.32,4.44.27,6.97-.6-.99-1.17-1.98-1.72-2.96-2.6-4.63-4.51-9.48-5.83-14.85.24-2.4.77-4.72,1.62-7.1.4-1.1.87-2.2,1.32-3.27.66-1.53,1.34-3.12,1.82-4.76.56-1.94,1.18-6.91-.62-9.03-.63-.74-1.51-1.06-2.59-.93-1.28.15-2.23.82-2.96,1.74-1.86,2.36-2.18,6.44-2.24,7.98-.16,4.67.26,9.24,1.26,13.59.01.06.02.11.03.15.92,4.7,2.5,9.4,4.7,13.97.44.91.91,1.82,1.4,2.72h-.05c-2.58-1.51-4.24-2.95-5.71-4.98-.76-1.05-1.47-2.15-2.14-3.22-1-1.56-2.03-3.19-3.27-4.65-1.31-1.56-4.27-3.86-6.57-3.44-1.1.2-1.9.98-2.39,2.35-1.39,3.89,3.16,7.89,7.2,10.57,3.86,2.55,8.09,4.01,12.57,4.35.38.13.71.21,1.04.26,2.18,3.9,4.72,7.68,7.17,11.33,1.36,2.01,2.75,4.09,4.08,6.16,1.45,2.28,2.73,4.4,3.91,6.45-3.87-.27-7.41-1.3-10.8-3.14-2.05-1.11-4.02-2.44-5.93-3.73-1.07-.72-2.18-1.47-3.3-2.18-.23-.14-.47-.3-.72-.46-2.19-1.42-5.2-3.36-7.9-2.58-2.27.65-2.86,2.92-2.66,4.83.82,7.61,10.07,9.61,14.01,10.12,3.64.46,7.49.38,11.76-.27,1.15-.17,2.31-.16,3.42-.15.76.01,1.55.02,2.33-.03.46-.02.77-.07,1.04-.18,2.82,5.1,5.02,9.92,6.77,14.73.72,1.99,1.35,4.01,1.91,5.99-1.04-.65-2.25-1.12-3.43-1.57l-.47-.2c-4.22-1.64-7.01-4.55-9.39-7.46-1.45-1.76-5.86-7.11-9.87-7.13-1.35-.01-2.53.59-3.52,1.76-1.57,1.88-.67,3.91.56,5.83,1.64,2.59,3.57,5.18,6.56,6.57,3.15,1.47,6.94,2.06,10.26,2.57l.31.05c.77.11,1.62.19,2.52.25,2.49.19,5.3.41,7.11,1.85.32,1.33.61,2.65.84,3.94l.05.31c.67,3.66,1.47,8.1.63,11.87h.42c.84-3.84.03-8.27-.64-11.94l-.05-.32c-.24-1.31-.53-2.67-.86-4.03l-.02-.07-.05-.04c-1.91-1.57-4.82-1.79-7.4-1.99-.89-.07-1.73-.13-2.49-.25l-.3-.04c-3.47-.54-7.06-1.09-10.15-2.54-2.89-1.35-4.78-3.88-6.39-6.42-1.04-1.62-2.02-3.5-.66-5.23.02-.04.06-.07.08-.09.9-1.08,1.98-1.63,3.19-1.62,3.81,0,8.12,5.25,9.54,6.97,2.43,2.96,5.26,5.92,9.56,7.6l.47.19c1.41.54,2.73,1.05,3.81,1.85l.49.36-.15-.58c-.59-2.17-1.29-4.39-2.08-6.59-1.77-4.88-4.02-9.78-6.89-14.95l-.09-.18-.18.1c-.26.12-.56.19-1.06.21-.77.05-1.56.04-2.31.03-1.13,0-2.3-.02-3.49.16-4.22.63-8.04.73-11.64.26-3.85-.49-12.86-2.44-13.65-9.74-.08-.85-.18-3.65,2.37-4.38,2.52-.72,5.43,1.16,7.55,2.53.26.16.5.31.72.46,1.11.7,2.23,1.45,3.3,2.17,1.91,1.29,3.9,2.63,5.96,3.75,3.56,1.94,7.28,2.99,11.37,3.21l.38.02-.19-.33c-1.23-2.16-2.57-4.39-4.12-6.81-1.33-2.08-2.72-4.15-4.08-6.16-2.46-3.68-5.01-7.47-7.2-11.38l-.06-.1h-.1c-.33-.06-.68-.16-1.09-.3h-.06c-4.42-.32-8.58-1.76-12.38-4.29-7.11-4.69-7.76-8.07-7.05-10.07.44-1.21,1.14-1.91,2.08-2.08,2.01-.37,4.82,1.71,6.17,3.31,1.22,1.43,2.24,3.04,3.24,4.61.67,1.07,1.38,2.18,2.15,3.23,1.51,2.08,3.22,3.57,5.88,5.13l.08.02c.14.02.29.03.44.04l.44.03-.19-.34c-.55-1-1.08-2.03-1.57-3.05-2.18-4.54-3.76-9.21-4.67-13.9,0-.03-.02-.05-.02-.11-1-4.33-1.42-8.87-1.26-13.5.07-2.07.63-8.83,4.83-9.32.93-.11,1.68.15,2.22.79,1.59,1.88,1.14,6.56.53,8.63-.46,1.62-1.14,3.19-1.79,4.72-.46,1.07-.94,2.17-1.33,3.29-.87,2.42-1.41,4.79-1.65,7.23v.07c1.33,5.43,3.26,10.33,5.88,15,.66,1.19,1.37,2.39,2.1,3.58l.39.61v-.71c.08-2.84,0-5.37-.25-7.75-.13-1.2-.32-2.43-.5-3.63-.29-1.95-.6-3.96-.66-5.94-.06-1.99.7-4.6,2.25-5.77.87-.64,1.89-.78,3.02-.42,4.26,1.38,2.32,8.59,2.09,9.42-.51,1.74-1.25,3.42-1.97,5.05-.3.68-.61,1.36-.89,2.05-.76,1.83-1.25,3.74-1.72,5.59-.24.96-.5,1.96-.78,2.92l-.03.1.05.08c1.51,2.39,3.11,4.78,4.66,7.09,1.32,1.97,2.68,4.01,3.98,6.03l.59.91-.2-1.06c-.71-3.76.49-7.72,1.67-11.56.22-.74.45-1.47.66-2.19.6-2.08.94-3.79,1.07-5.41.03-.36.04-.72.05-1.08.04-.98.08-1.99.41-2.9.48-1.31,1.66-2.79,3.4-2.66,1.21.1,2.18.71,2.85,1.84,1.57,2.6,1.24,7.33.32,9.44-.96,2.23-2.76,4.2-4.49,6.11-2.69,2.94-5.47,6.01-5.3,10.12l.06.15c.54.85,1.07,1.73,1.62,2.67.67,1.14,1.2,2.07,1.68,2.92l.03.05.05.03s.04.04.03.06v.06l.03.05c2.06,3.69,3.87,7.34,5.34,10.81l.6,1.42-.2-1.53c-.22-1.71-.27-3.48-.31-5-.05-2.89-.41-5.75-1.23-9.54-1.14-5.45-.47-7.56.3-8.37.48-.5,1.14-.68,2-.54,3.75.58,4.34,8.03,4.25,10.85-.08,2.45-.68,4.91-1.87,7.74-.12.3-.25.58-.37.88-.96,2.23-1.93,4.52-1.98,6.98v.08c.83,2.16,1.55,4.33,2.16,6.45.94,3.28,1.96,7.16,2.4,11.04l.2,1.78.21-1.78c.64-5.17,1.91-8.99,4.03-12.02,1.93-2.74,6.01-6.27,9.31-4.68,1.1.52,1.74,1.33,1.89,2.39.02.16.04.33.04.51,0,1.83-1.29,3.98-2.63,5.2-1.72,1.57-3.64,3.03-5.49,4.43-.39.29-.76.57-1.13.85-.33.26-.69.52-1.07.79-2.01,1.46-4.52,3.28-5.14,5.76v.05c.06,2.32-.19,4.45-.72,6.37h.45c.51-1.92.74-4.04.7-6.35.58-2.31,2.91-4,4.97-5.49.37-.27.74-.53,1.07-.8.37-.27.74-.56,1.12-.84,1.86-1.42,3.79-2.87,5.53-4.47,1.58-1.44,3.02-3.99,2.72-6.08Z"/>
                  <path class="cls-3" d="m78.2,96.26c-3.15-1.87-6.24,1.74-7.52,3.35-.09.12-.17.22-.24.31-2.33,3.01-5.02,11.52-5.13,12.28-.03.2.11.38.31.41.19.04.35-.07.38-.24.02-.03,1.98-3.92,10.72-9.5,1.44-.91,2.95-2.76,2.92-4.37,0-.92-.5-1.68-1.44-2.24Zm-1.7,6.25c-7.42,4.73-9.98,8.21-10.68,9.35.5-1.86,2.87-8.99,4.96-11.68,1.03-1.33,4.16-5.36,7.2-3.56.81.48,1.23,1.12,1.24,1.89.01.8-.41,1.68-1.01,2.44-.49.62-1.11,1.18-1.71,1.56Z"/>
                  <path class="cls-3" d="m94.93,114.78c-.57-.66-1.27-1.02-2.1-1.05-.85-.04-1.54.23-2.05.79-.04.06-.09.1-.13.15-1.23,1.57-.87,4.55-.78,5.14.25,1.77.79,3.51,1.32,5.19.78,2.51,1.59,5.11,1.41,7.77l-.81,2.79c-.07.22.04.43.25.49.2.06.46-.01.54-.25,1.1-2.8,1.95-5.31,2.59-7.62.62-2.31,1.03-4.42,1.25-6.41.2-1.89-.04-5.3-1.49-6.99Zm1.06,6.94c-.42,3.95-1.63,8.37-3.8,13.96l.81-2.82v-.05c.22-2.73-.61-5.38-1.41-7.94-.51-1.66-1.05-3.39-1.31-5.12-.23-1.6-.16-3.87.81-4.94.42-.47,1-.69,1.72-.66.71.03,1.32.33,1.8.9,1.37,1.59,1.57,4.85,1.38,6.67Z"/>
                  <path class="cls-3" d="m39.89,114.18c-.4-1.93-.87-3.64-1.46-5.19-.3-.79-.85-1.86-1.56-2.79-.08.1-.15.2-.22.29.66.87,1.17,1.88,1.45,2.62,1.15,3.07,1.91,6.78,2.38,11.72l-.44-2.39-.02-.04c-.86-2.09-2.46-3.74-3.99-5.33-.78-.81-1.59-1.63-2.3-2.53-.07.1-.14.19-.21.29.7.88,1.48,1.69,2.26,2.49,1.5,1.56,3.07,3.17,3.92,5.2l.44,2.37c.03.18.19.3.37.26.17-.02.33-.17.3-.38-.22-2.48-.53-4.64-.92-6.59Z"/>
                </g>
              </g>
              <g>
                <path class="cls-6" d="m91.77,101.86c28.25,35.95,38.91,100.54,23.23,105.57-14.33,4.6-73.26-10.15-90.81-16.11-5.16-1.75,10.77-41.84,16.28-39.97,6.67,2.26,43.11,10.89,43.82,10.91,1.51.03-6.59-39.73-10.06-57.75-4.84-25.1,6.93-16.15,17.54-2.65Z"/>
                <g>
                  <path class="cls-2" d="m83.76,160.63c.46-.27-8.01-38.65-10.85-58.68-2.84-20.03,6.11-18.1,18.98-.98,13.79,18.34,38.33,67.98,29.83,104.74-2.75,11.9-88.03-4.77-88.03-4.77l11.49-49.02s37.88,9.13,38.59,8.7Z"/>
                  <g>
                    <path class="cls-3" d="m78.2,96.26c-2.12-1.26-4.22-.03-5.75,1.4.02.18.03.36.04.55,1.45-1.43,3.49-2.77,5.49-1.59.81.48,1.23,1.12,1.24,1.89.01.8-.41,1.68-1.01,2.44-.49.62-1.11,1.18-1.71,1.56-1.18.75-2.24,1.47-3.19,2.16.03.15.05.31.08.47.98-.72,2.09-1.48,3.33-2.27,1.44-.91,2.95-2.76,2.92-4.37,0-.92-.5-1.68-1.44-2.24Z"/>
                    <path class="cls-3" d="m94.93,114.78c-.57-.66-1.27-1.02-2.1-1.05-.85-.04-1.54.23-2.05.79-.04.06-.09.1-.13.15-1.23,1.57-.87,4.55-.78,5.14.25,1.77.79,3.51,1.32,5.19.78,2.51,1.59,5.11,1.41,7.77l-.81,2.79c-.07.22.04.43.25.49.2.06.46-.01.54-.25,1.1-2.8,1.95-5.31,2.59-7.62.62-2.31,1.03-4.42,1.25-6.41.2-1.89-.04-5.3-1.49-6.99Zm1.06,6.94c-.42,3.95-1.63,8.37-3.8,13.96l.81-2.82v-.05c.22-2.73-.61-5.38-1.41-7.94-.51-1.66-1.05-3.39-1.31-5.12-.23-1.6-.16-3.87.81-4.94.42-.47,1-.69,1.72-.66.71.03,1.32.33,1.8.9,1.37,1.59,1.57,4.85,1.38,6.67Z"/>
                  </g>
                  <path class="cls-1" d="m83.34,161.02c.03-.08-4.88-25.54-5.4-26.46-.53-.95-1.67-3.06-2.14-4.05-.94-1.99-1.76-4.02-2.63-6.03-.07-.17.18-.29.25-.13.94,1.95,2.04,3.81,3.16,5.65.55.9,1.11,1.82,1.66,2.71.04.06-2.68-14.36-3.06-16.89-.03-.19.17-.24.23-.08.82,2.55,8.54,42.2,9.32,45.4,0,0-.54,0-1.4-.13Z"/>
                </g>
              </g>
            </g>
            <g>
              <path class="cls-6" d="m47.43,90.11s1.14,11.28,10.49,13.03c9.35,1.76,26.82-10.52,26.82-10.52,0,0-7.02-9.44-19.69-9.47-12.19-.03-17.62,6.96-17.62,6.96Z"/>
              <g>
                <g>
                  <path class="cls-6" d="m74.27,86.96c-.5,1.69-9.33,12.37-17.16,11.55-2.55-.27-1.69-14.25-1.69-14.25l-.17-1.05-2.41-14.65,17.61-9.93,2.54-1.3s.39,4.05.84,9.1c.02.23.04.47.06.72.03.28.07.55.08.82.08.75.15,1.52.21,2.29.05.58.09,1.15.12,1.77.04.62.07,1.22.11,1.83.28,6.09.07,12.37-.14,13.09Z"/>
                  <path class="cls-1" d="m73.82,66.44c-4.8,11.27-14.26,15.44-18.57,16.78l-2.41-14.65,17.61-9.93,2.54-1.3s.39,4.05.84,9.1Z"/>
                </g>
                <g>
                  <path class="cls-6" d="m33.41,48.15c-1.74,25.99,13.63,29.97,19.24,30.34,5.09.34,22.46.83,26.87-24.84,4.42-25.67-7.12-34.7-18.72-36.08-11.6-1.38-25.65,4.59-27.39,30.59Z"/>
                  <g>
                    <path class="cls-1" d="m41.3,41.54c.61-.05,1.17-.2,1.77-.31.68-.12,1.23-.15,1.75-.66.28-.27.28-.84.04-1.13-.55-.68-1.42-.74-2.24-.62-.89.13-1.55.45-2.16,1.12-.59.64.03,1.66.84,1.6Z"/>
                    <path class="cls-1" d="m59.36,40.45c-.61-.08-1.16-.26-1.75-.41-.67-.16-1.22-.22-1.71-.76-.26-.28-.23-.85.02-1.13.59-.65,1.46-.66,2.28-.49.89.18,1.52.54,2.1,1.24.56.67-.13,1.66-.93,1.55Z"/>
                    <g>
                      <g>
                        <path class="cls-1" d="m55.32,49.46c.02-.07.13.09.13.16-.13,1.77.01,3.82,1.59,4.48.05.02.04.11-.02.1-1.94-.36-2.11-3.08-1.7-4.74Z"/>
                        <path class="cls-1" d="m56.98,47.68c2.86-.09,2.84,5.63.19,5.72-2.61.09-2.58-5.64-.19-5.72Z"/>
                      </g>
                      <path class="cls-1" d="m58.11,47.99c.5.33.99.9,1.59.96.7.07,1.23-.53,1.69-1.1.05-.06.1,0,.1.07.01,1.1-.41,2.22-1.59,2.38-1.07.14-1.84-.83-2.11-1.93-.05-.2.13-.51.33-.37Z"/>
                    </g>
                    <g>
                      <g>
                        <path class="cls-1" d="m44.5,48.15c-.01-.07-.14.08-.14.15.03,1.77-.23,3.81-1.84,4.38-.05.02-.05.11.01.1,1.96-.25,2.28-2.96,1.97-4.63Z"/>
                        <path class="cls-1" d="m42.94,46.28c-2.85-.25-3.15,5.46-.51,5.7,2.6.23,2.9-5.49.51-5.7Z"/>
                      </g>
                      <path class="cls-1" d="m41.73,46.59c-.47.28-.94.81-1.49.81-.63,0-1.06-.63-1.43-1.25-.04-.06-.09-.02-.09.06-.09,1.09.21,2.25,1.25,2.51.95.24,1.7-.66,2.02-1.73.06-.2-.08-.51-.27-.4Z"/>
                    </g>
                    <path class="cls-1" d="m53.57,63.22c-.41.43-.81,1.02-1.45,1.1-.61.08-1.35-.17-1.92-.37-.06-.02-.11.04-.07.09.49.66,1.47,1.05,2.29.87.8-.17,1.16-.88,1.33-1.62.02-.1-.11-.14-.17-.07Z"/>
                    <path class="cls-1" d="m46.26,56.69s-.41,2.64-.43,3.89c0,.12.3.18.72.21.02,0,.03.01.05,0,2.2.38,4.43-.35,5.8-2.13.09-.12-.07-.25-.18-.18-1.67,1.18-3.49,1.47-5.45,1.47-.08-.35.85-4.5.65-4.52-.68-.07-2.03.37-2.85.6.69-5.53,2.26-10.9,2.87-16.42.02-.2-.26-.26-.32-.09-2.05,5.52-2.98,11.86-3.84,17.56-.11.71,2.47-.19,2.98-.39Z"/>
                    <g>
                      <path class="cls-1" d="m46.95,60.32s1.09,1.68,2.68,2.36c.59.25,1.23.38,1.91.24,1.41-.28,1.53-1.55,1.34-2.66-.15-.91-.52-1.71-.52-1.71,0,0-2.15,1.77-5.41,1.78Z"/>
                      <path class="cls-2" d="m49.63,62.68c.59.25,1.23.38,1.91.24,1.41-.28,1.53-1.55,1.34-2.66-1.5.06-3.04.98-3.25,2.42Z"/>
                    </g>
                  </g>
                  <path class="cls-1" d="m78.06,53.51c-2.81-.39-9.55-8.76-8.69-22.43,0,0,.07,12.33.85,14.2.78,1.87-3.77-4.71-3.22-15.74,0,0-6.45,3.91-11.77,4.95-5.32,1.04-8.49.74-8.83.33-.34-.41,7.5-2.2,9.76-4.42,0,0-14.35,5.32-20.76,5.3-.74,0-.41-15.24,9.96-20.89,10.37-5.65,25.43,2.55,29.3,6.94,0,0,4.87,1.1,9.65,8.82,4.77,7.72-3.23,23.37-6.26,22.94Z"/>
                  <g>
                    <path class="cls-6" d="m74.35,54.82s5.52-8.24,9.25-6.29c3.73,1.95-.31,13.82-4.61,15.52-4.3,1.7-5.95-2.25-5.95-2.25l1.31-6.98Z"/>
                    <path class="cls-1" d="m82.36,51.9c.07,0,.09.09.03.12-3.01,1.29-4.56,4.14-5.62,7.08.88-1.14,2.1-1.78,3.63-.74.08.05,0,.18-.08.16-1.25-.24-2.14,0-2.96,1-.58.72-.97,1.62-1.38,2.44-.14.27-.63.14-.53-.18,0-.02.02-.05.02-.07-.15-3.87,2.75-9.35,6.9-9.82Z"/>
                  </g>
                </g>
              </g>
            </g>
          </g>
        </g>
      </g>
    </g>
  </g>
</svg>