<?xml version="1.0" encoding="UTF-8"?>
<svg id="Layer_2" data-name="Layer 2" xmlns="http://www.w3.org/2000/svg" xmlns:xlink="http://www.w3.org/1999/xlink" viewBox="0 0 123.71 123.71">
  <defs>
    <style>
      .cls-1 {
        fill: #3c3575;
      }

      .cls-2 {
        fill: #e6a2b5;
      }

      .cls-3 {
        fill: #6f84f0;
      }

      .cls-4 {
        fill: #f2e0d8;
      }

      .cls-5 {
        opacity: .1;
      }

      .cls-6 {
        clip-path: url(#clippath);
      }

      .cls-7 {
        fill: none;
      }

      .cls-8 {
        fill: #ad6359;
      }
    </style>
    <clipPath id="clippath">
      <circle class="cls-7" cx="61.85" cy="61.85" r="61.85"/>
    </clipPath>
  </defs>
  <g id="OBJECTS">
    <g>
      <circle class="cls-4" cx="61.85" cy="61.85" r="61.85"/>
      <g class="cls-6">
        <g>
          <path class="cls-2" d="m120.98,209.74H13.93c-.45-4.09,15.95-91.08,35.21-119.05,2.19-3.17,20.9-5.48,27.78,2.41,36.4,41.8,44.94,115.63,44.06,116.63Z"/>
          <g>
            <path class="cls-8" d="m46.6,97.91c-3.04,7.87-14.5,35.47-20.73,55.28-4.18,13.29-5.77,24.45-6.69,27.38,0,0,31.61-10.15,38.73-10.17,10.96-.03,28.54,22.86,24.23,25.73-6.78,4.51-39.1,19.85-64.91,24.66-14.03,2.62-40.46-15.21-38.37-29.39,2.93-19.9,38.88-72.34,52.56-87.21,7.1-7.72,18.88-15.87,15.18-6.28Z"/>
            <g>
              <path class="cls-2" d="m-23.07,195.61c.66,14.33,18.59,26.4,28.99,27.03,17.93,1.09,71.73-14.58,71.73-14.58l-20.91-40.29s-36.6,12.42-37.53,12.77v-.02c.32-1.07,9.34-34.96,13.38-46.2.22-.62.46-1.25.7-1.92,1.16-3.11,2.75-7.22,4.51-11.66l.02-.03c.97-2.46,2-5.02,3.02-7.56v-.02c4.42-10.98,8.73-21.43,8.73-21.43-6.16,1.01-12.25,4.25-22.24,14.74-9.97,10.47-51.47,65.51-50.38,89.15Z"/>
              <path class="cls-1" d="m8.01,186.5l11.18-5.93.02-.02v-.02c.32-1.07,9.34-34.96,13.38-46.2.22-.62.46-1.25.7-1.92,1.16-3.11,2.75-7.22,4.51-11.66l-29.78,65.73Z"/>
            </g>
          </g>
          <g>
            <path class="cls-8" d="m6.89,182.73c2.81.04,19.74-4.49,22.21-2.16,15.03,14.17,19.79,11.32,22.99,13.16,24.77,14.25,57.85,30.99,69.66,31.1,17.91.15,25.04-14.88,22.06-29.08-5.88-28.07-43.74-82.8-60.87-97.34-9.08-7.7-8.36,3.91-4.61,16.54,2.2,7.4,6.06,18.41,9.99,29.21,3.48,9.62,12.71,34.2,12.87,34.78v.02s.03.05.03.07c.01.07-.05.08-.2.04-.79-.14-21.97-10.13-43.27-15.61-7.51-1.93-23.14-4.69-28.74-2.18-3.33,1.49-3.39,3.48-3.39,3.48,0,0-2.67-.24-5.49,2.08-1.87,1.54-2.45,3.72-2.45,3.72,0,0-2.92.41-4.44,2.1-1.81,2.02-1.97,4.16-1.97,4.16-3.94,1.05-4.36,5.93-4.36,5.93Z"/>
            <path class="cls-2" d="m73.59,167.71c-3.92-1.33-5.69-1.33-5.69-1.33l-22.29,37.64s61.39,22.1,73.99,23.39c12.6,1.29,26.94-8.63,27.18-24.46.34-22.24-35.93-75.65-54.17-96.3-8.36-9.47-18.11-16.34-20.6-14.79-2.94,1.83,2.4,13.73,5.21,22.61,5.19,16.39,23.78,64.59,23.78,64.59,0,0-22.75-9.77-27.42-11.35Z"/>
          </g>
          <path class="cls-2" d="m54.42,113.64s18.88-14.05,29.72-12.34l10.78,7.43s2.27,1.03,3.44-.78c2.9-4.47,2.78-14.02-6.19-22.69-8.22-7.94-26.98-8.81-39.75-7.05-12.26,1.68-19.66,7.88-16.96,16.07,2.7,8.19,18.96,19.36,18.96,19.36Z"/>
          <path class="cls-5" d="m53.67,109.86s-12.44-11.39-13.14-17.33,11.52-10.05,19.24-11.3c11.95-1.93,19.72-.24,25.44,6.71,5.72,6.95-31.54,21.92-31.54,21.92Z"/>
          <g>
            <g>
              <path class="cls-8" d="m52,106.75c5.87,1.77,16.64-6.71,21.12-13.84.3-.49-.15-5.87-.39-12.42-.13-3.98-.18-8.42.06-12.47l-25.78,4.64s1.98,8.64,1.51,15.7c-.05.59-.14,1.14-.28,1.65-.01.08-.04.17-.05.27-.71,3.13-1.87,14.76,3.8,16.47Z"/>
              <path class="cls-1" d="m48.19,90.27c-.04.17-.08.36-.1.57,15.5-1.48,21.05-8.62,24.53-15.37-.01-2.5.02-5.04.18-7.46l-25.78,4.63s1.99,8.65,1.51,15.7c-.04.59-.14,1.13-.28,1.65-.01.07-.02.17-.05.27Z"/>
            </g>
            <g>
              <path class="cls-8" d="m78.1,35.38c3.2,8.88-.27,35.15-6.4,41.27-8.88,8.88-24.05,10.43-31.75-.38-7.47-10.48-2.34-44.64,4.56-50.27,10.16-8.29,28.87-3.73,33.59,9.39Z"/>
              <g>
                <g>
                  <path class="cls-1" d="m56.73,51.13c.02-.07.13.1.12.17-.28,1.76-.31,3.83,1.22,4.62.05.02.03.11-.03.1-1.92-.52-1.86-3.27-1.31-4.89Z"/>
                  <path class="cls-1" d="m58.55,49.48c2.88.15,2.37,5.89-.29,5.75-2.62-.13-2.12-5.87.29-5.75Z"/>
                </g>
                <g>
                  <path class="cls-1" d="m45.89,50.08c0-.07-.15.07-.15.14-.1,1.78-.51,3.81-2.17,4.26-.05.01-.05.1,0,.1,1.99-.1,2.51-2.8,2.32-4.5Z"/>
                  <path class="cls-1" d="m44.47,48.08c-2.84-.47-3.57,5.25-.94,5.68,2.59.43,3.32-5.29.94-5.68Z"/>
                </g>
                <path class="cls-3" d="m61.04,47.05c-.76-.27-1.43-.64-2.15-.98-.82-.38-1.52-.61-2.01-1.42-.26-.43-.07-1.16.32-1.45.93-.69,2.05-.47,3.06-.04,1.09.46,1.82,1.09,2.38,2.14.54,1.01-.59,2.1-1.6,1.75Z"/>
                <path class="cls-3" d="m42.5,45c.81-.06,1.54-.25,2.33-.39.89-.16,1.62-.2,2.3-.85.37-.35.37-1.1.06-1.49-.72-.9-1.86-.98-2.95-.83-1.18.16-2.04.59-2.85,1.45-.78.84.04,2.19,1.1,2.11Z"/>
                <path class="cls-1" d="m55.93,67.48c-.46.38-.94.91-1.59.91-.62,0-1.32-.34-1.87-.61-.05-.03-.12.03-.08.08.4.72,1.34,1.24,2.17,1.16.82-.07,1.28-.73,1.54-1.45.04-.1-.1-.15-.16-.1Z"/>
                <path class="cls-1" d="m54.53,62c-1.13,1.46-2.67,2.17-4.28,2.34-.72.08-1.46.04-2.19-.09-.14-.02-.28-.04-.41-.08-.13-.03-.24-.05-.38-.09-.21-.05-.3-.23-.32-.43h0c0-.08.01-.13.03-.19h0s.02-.17.02-.17c.08-1.37.4-3.44.4-3.44-.52.21-3.17,1.13-3.07.42.87-5.89,1.84-12.44,3.96-18.12.06-.19.35-.12.32.07-.61,5.69-2.23,11.24-2.93,16.95.84-.24,2.22-.69,2.93-.62.19.07-.68,3.99-.67,4.61,0,0,0,.03,0,.07,2.27.5,4.07-.05,6.44-1.4.14-.09.27.04.15.17Z"/>
                <g>
                  <path class="cls-1" d="m49.02,63.95s1.1,1.67,2.69,2.34c.59.25,1.23.37,1.92.23,1.41-.29,1.52-1.56,1.32-2.67-.16-.91-.53-1.71-.53-1.71,0,0-2.14,1.79-5.4,1.8Z"/>
                  <path class="cls-2" d="m51.71,66.3c.59.25,1.23.37,1.92.23,1.41-.29,1.52-1.56,1.32-2.67-1.5.07-3.03,1-3.24,2.44Z"/>
                </g>
              </g>
              <path class="cls-3" d="m38.35,40.32s1.99-6.57,3.34-8.36c1.35-1.79,3.31-3.5,4.37-3.39,1.06.11.43,3.97,3.56,4.36s5.96-4.9,13.5-3.87c9.39,1.28,8.62,15.98,9.03,19.62.73,6.57,5.5,13.86,5.5,13.86,0,0,5.86-23.98.63-33.28-5.91-10.51-24.88-12.63-32.59-5.55-5.01,4.59-7.35,16.62-7.35,16.62Z"/>
              <g>
                <path class="cls-8" d="m73.59,56.88s5.64-8.6,9.53-6.61c3.89,1.99-.19,14.33-4.63,16.14-4.44,1.8-6.19-2.27-6.19-2.27l1.29-7.25Z"/>
                <path class="cls-1" d="m81.86,53.78c.07,0,.09.09.03.12-3.11,1.37-4.68,4.33-5.75,7.39.9-1.19,2.16-1.87,3.75-.8.08.06,0,.19-.08.17-1.3-.24-2.22.01-3.06,1.07-.6.75-.99,1.69-1.41,2.54-.14.29-.65.15-.55-.18,0-.02.02-.05.02-.07-.2-4.01,2.76-9.72,7.05-10.25Z"/>
              </g>
            </g>
          </g>
          <path class="cls-2" d="m53.67,109.86s16.25-21.16,33.34-21.36l-2.95,12.46s-10.04-1.2-29.64,12.68l-.75-3.79Z"/>
          <g>
            <path class="cls-2" d="m61.42,105.31s1.21,6.6,1.11,16.08c-.04,3.75-1.9,17.17-6.05,16.56-4.16-.61,2.91-9.09,4.32-16.15,1.43-7.17-.32-12.32-.45-16.58l1.07.09Z"/>
            <g class="cls-5">
              <path d="m61.42,105.31s1.21,6.6,1.11,16.08c-.04,3.75-1.9,17.17-6.05,16.56-4.16-.61,2.91-9.09,4.32-16.15,1.43-7.17-.32-12.32-.45-16.58l1.07.09Z"/>
            </g>
          </g>
          <g>
            <path class="cls-1" d="m88.57,101.74c-3.03-.76-6.18-.45-9.18.11-3.02.57-5.93,1.61-8.74,2.85-2.83,1.2-5.51,2.72-8.16,4.28l-3.88,2.52-3.76,2.7-.42.3-.4-.27c-2.96-2-5.75-4.2-8.4-6.57-1.32-1.19-2.62-2.41-3.79-3.75-1.18-1.33-2.3-2.72-3.19-4.25,2.19,2.79,4.87,5.07,7.59,7.28,1.37,1.1,2.78,2.14,4.22,3.15,1.43,1.01,2.88,2.02,4.34,2.95l-.82.03,3.78-2.8c1.3-.88,2.62-1.74,3.94-2.59,1.37-.77,2.73-1.57,4.12-2.29,1.43-.67,2.83-1.4,4.31-1.94,2.91-1.21,5.99-2.03,9.12-2.46.78-.12,1.57-.16,2.36-.22.79,0,1.58-.03,2.36.03,1.57.08,3.15.33,4.59.93Z"/>
            <path class="cls-1" d="m94.78,108.51c-1.96-.96-3.77-2.1-5.55-3.29-1.76-1.21-3.5-2.47-5.09-3.92,1.96.95,3.77,2.1,5.55,3.29,1.76,1.21,3.49,2.47,5.09,3.92Z"/>
          </g>
          <g>
            <path class="cls-2" d="m46.2,103.97s-2.12,5.7-3.55,14.18c-.56,3.36-1.03,15.63,2.78,15.74,3.81.11-1.15-8.58-1.29-15.11-.14-6.63,2.24-10.95,3.03-14.73l-.97-.09Z"/>
            <g class="cls-5">
              <path d="m46.2,103.97s-2.12,5.7-3.55,14.18c-.56,3.36-1.03,15.63,2.78,15.74,3.81.11-1.15-8.58-1.29-15.11-.14-6.63,2.24-10.95,3.03-14.73l-.97-.09Z"/>
            </g>
          </g>
        </g>
      </g>
    </g>
  </g>
</svg>