<?xml version="1.0" encoding="UTF-8"?>
<svg id="Layer_2" data-name="Layer 2" xmlns="http://www.w3.org/2000/svg" xmlns:xlink="http://www.w3.org/1999/xlink" viewBox="0 0 123.71 123.71">
  <defs>
    <style>
      .cls-1 {
        fill: #3c3575;
      }

      .cls-2 {
        fill: #6f84f0;
      }

      .cls-3 {
        fill: #f2e0d8;
      }

      .cls-4 {
        clip-path: url(#clippath);
      }

      .cls-5 {
        fill: none;
      }

      .cls-6 {
        fill: #dd6a57;
      }
    </style>
    <clipPath id="clippath">
      <circle class="cls-5" cx="61.85" cy="61.85" r="61.85"/>
    </clipPath>
  </defs>
  <g id="OBJECTS">
    <g>
      <circle class="cls-3" cx="61.85" cy="61.85" r="61.85"/>
      <g class="cls-4">
        <g>
          <g>
            <path class="cls-2" d="m122.23,209.74H15.18c-.45-4.09,15.95-91.08,35.21-119.05,2.19-3.17,20.9-5.48,27.78,2.41,36.4,41.8,44.94,115.63,44.06,116.63Z"/>
            <g>
              <path class="cls-1" d="m36.39,121.42v88.32h-2.48v-80.85c.81-2.53,1.63-5.03,2.48-7.47Z"/>
              <path class="cls-1" d="m56.28,88.28v121.46h-2.49v-120.87c.75-.23,1.58-.42,2.49-.59Z"/>
              <path class="cls-1" d="m76.16,91.3v118.44h-2.48v-119.86c.89.4,1.72.87,2.48,1.42Z"/>
              <path class="cls-1" d="m96.05,119.73v90.01h-2.49v-94.57c.85,1.5,1.68,3.03,2.49,4.56Z"/>
              <path class="cls-1" d="m78.17,93.1c.58.67,1.15,1.34,1.72,2.02h-32.25c.49-.87.98-1.7,1.48-2.49h28.6c.16.15.31.31.45.47Z"/>
              <path class="cls-1" d="m92.02,112.52c.49.82.97,1.65,1.44,2.48h-54.77c.32-.84.63-1.66.94-2.48h52.39Z"/>
            </g>
          </g>
          <g>
            <path class="cls-6" d="m47.85,97.91c-3.04,7.87-14.5,35.47-20.73,55.28-4.18,13.29-5.77,24.45-6.69,27.38,0,0,31.61-10.15,38.73-10.17,10.96-.03,28.54,22.86,24.23,25.73-6.78,4.51-39.1,19.85-64.91,24.66-14.03,2.62-40.46-15.21-38.37-29.39,2.93-19.9,38.88-72.34,52.56-87.21,7.1-7.72,18.88-15.87,15.18-6.28Z"/>
            <g>
              <path class="cls-2" d="m-21.82,195.61c.66,14.33,18.59,26.4,28.99,27.03,17.93,1.09,71.73-14.58,71.73-14.58l-20.91-40.29s-36.6,12.42-37.53,12.77v-.02c.32-1.07,9.34-34.96,13.38-46.2.22-.62.46-1.25.7-1.92,1.16-3.11,2.75-7.22,4.51-11.66l.02-.03c.97-2.46,2-5.02,3.02-7.56v-.02c4.42-10.98,8.73-21.43,8.73-21.43-6.16,1.01-12.25,4.25-22.24,14.74-9.97,10.47-51.47,65.51-50.38,89.15Z"/>
              <g>
                <path class="cls-1" d="m16.51,121.24v100.96c-.85.1-1.69.18-2.49.26v-97.89c.85-1.15,1.68-2.26,2.49-3.33Z"/>
                <path class="cls-1" d="m36.39,99.02v28.51c-.69,1.79-1.32,3.44-1.85,4.87t-.01.02c-.21.58-.43,1.15-.62,1.7v-32.93c.86-.79,1.68-1.51,2.48-2.17Z"/>
                <path class="cls-1" d="m50.43,92.63c-.24.58-.59,1.43-1.02,2.49h-7.63c1.88-1.13,3.63-1.93,5.33-2.49h3.32Z"/>
                <path class="cls-1" d="m42.33,112.52c-.09.21-.18.42-.26.63v.02c-.24.61-.49,1.22-.73,1.83h-20.01c.7-.87,1.36-1.7,2-2.48h19Z"/>
              </g>
              <path class="cls-1" d="m9.26,186.5l11.18-5.93.02-.02v-.02c.32-1.07,9.34-34.96,13.38-46.2.22-.62.46-1.25.7-1.92,1.16-3.11,2.75-7.22,4.51-11.66l-29.78,65.73Z"/>
            </g>
          </g>
          <g>
            <path class="cls-6" d="m8.14,182.73c2.81.04,19.74-4.49,22.21-2.16,15.03,14.17,19.79,11.32,22.99,13.16,24.77,14.25,57.85,30.99,69.66,31.1,17.91.15,25.04-14.88,22.06-29.08-5.88-28.07-43.74-82.8-60.87-97.34-9.08-7.7-8.36,3.91-4.61,16.54,2.2,7.4,6.06,18.41,9.99,29.21,3.48,9.62,12.71,34.2,12.87,34.78v.02s.03.05.03.07c.01.07-.05.08-.2.04-.79-.14-21.97-10.13-43.27-15.61-7.51-1.93-23.14-4.69-28.74-2.18-3.33,1.49-3.39,3.48-3.39,3.48,0,0-2.67-.24-5.49,2.08-1.87,1.54-2.45,3.72-2.45,3.72,0,0-2.92.41-4.44,2.1-1.81,2.02-1.97,4.16-1.97,4.16-3.94,1.05-4.36,5.93-4.36,5.93Z"/>
            <g>
              <path class="cls-2" d="m74.84,167.71c-3.92-1.33-5.69-1.33-5.69-1.33l-22.29,37.64s61.39,22.1,73.99,23.39c12.6,1.29,26.94-8.63,27.18-24.46.34-22.24-35.93-75.65-54.17-96.3-8.36-9.47-18.11-16.34-20.6-14.79-2.94,1.83,2.4,13.73,5.21,22.61,5.19,16.39,23.78,64.59,23.78,64.59,0,0-22.75-9.77-27.42-11.35Z"/>
              <g>
                <path class="cls-1" d="m76.16,92.1v15.58c-.9-2.53-1.79-5.05-2.48-7.32v-8.67c.6-.14,1.44.01,2.48.41Z"/>
                <path class="cls-1" d="m96.05,109.16v53.62c-.79-2.08-1.63-4.29-2.49-6.58v-49.91c.1.12.21.23.31.35.7.79,1.43,1.63,2.18,2.52Z"/>
                <path class="cls-1" d="m81.36,95.12h-8.88c-.11-1.04-.07-1.89.19-2.49h4.67c1.19.59,2.55,1.43,4.02,2.49Z"/>
                <path class="cls-1" d="m100.82,115h-22.16c-.06-.18-.12-.36-.17-.53-.2-.64-.42-1.29-.64-1.95h20.98c.65.8,1.31,1.63,1.99,2.48Z"/>
              </g>
            </g>
          </g>
          <g>
            <g>
              <path class="cls-6" d="m52.42,106.47c5.77,2.07,16.97-5.83,21.82-12.71.33-.47.16-5.87.26-12.43.08-3.98.26-8.41.72-12.44l-25.98,3.27s1.53,8.73.69,15.76c-.08.59-.2,1.13-.36,1.63-.02.08-.05.16-.07.27-.87,3.08-2.65,14.64,2.93,16.65Z"/>
              <path class="cls-1" d="m49.49,89.82c-.05.17-.1.35-.13.57,15.56-.66,21.47-7.5,25.3-14.06.12-2.5.28-5.04.57-7.44l-25.99,3.27s1.53,8.74.68,15.76c-.07.58-.2,1.12-.37,1.63-.02.07-.03.17-.07.27Z"/>
            </g>
            <g>
              <path class="cls-6" d="m82.25,36.58c2.73,9.03-2.12,35.09-8.56,40.88-9.33,8.4-24.57,9.15-31.69-2.05-6.91-10.86.01-44.7,7.2-49.96,10.58-7.75,29.02-2.2,33.05,11.14Z"/>
              <g>
                <g>
                  <path class="cls-1" d="m60.08,51.18c.03-.06.12.11.11.18-.37,1.75-.51,3.81.98,4.68.05.03.02.11-.03.1-1.89-.62-1.68-3.36-1.05-4.96Z"/>
                  <path class="cls-1" d="m61.98,49.63c2.86.3,2.06,6-.59,5.73-2.61-.27-1.81-5.98.59-5.73Z"/>
                </g>
                <g>
                  <path class="cls-1" d="m49.31,49.56c0-.07-.15.06-.16.14-.19,1.78-.71,3.78-2.39,4.14-.05.01-.06.1,0,.1,1.99,0,2.65-2.66,2.55-4.37Z"/>
                  <path class="cls-1" d="m47.99,47.49c-2.81-.62-3.84,5.05-1.23,5.62,2.56.56,3.59-5.11,1.23-5.62Z"/>
                </g>
                <path class="cls-1" d="m64.6,47.34c-.75-.31-1.39-.71-2.1-1.09-.8-.43-1.48-.68-1.93-1.52-.24-.45-.01-1.16.4-1.43.96-.64,2.07-.36,3.06.12,1.07.52,1.76,1.19,2.26,2.26.49,1.04-.7,2.07-1.69,1.67Z"/>
                <path class="cls-1" d="m46.19,44.3c.81-.02,1.55-.17,2.35-.27.9-.11,1.63-.11,2.35-.73.38-.33.43-1.08.14-1.48-.67-.94-1.81-1.07-2.9-.98-1.18.1-2.07.48-2.92,1.3-.83.8-.08,2.19.99,2.16Z"/>
                <path class="cls-1" d="m58.42,67.47c-.48.35-.98.86-1.63.83-.62-.03-1.3-.41-1.84-.71-.05-.03-.12.02-.09.08.36.74,1.27,1.3,2.11,1.28.82-.03,1.31-.66,1.61-1.37.04-.1-.09-.16-.16-.1Z"/>
                <path class="cls-1" d="m57.3,61.91c-1.21,1.39-2.78,2.03-4.39,2.11-.72.04-1.46-.04-2.18-.21-.14-.02-.28-.06-.41-.11-.13-.03-.24-.07-.38-.11-.2-.06-.29-.25-.3-.45h0c.01-.08.02-.13.04-.19h0s.02-.17.02-.17c.15-1.37.58-3.42.58-3.42-.53.18-3.23.96-3.09.26,1.18-5.84,2.49-12.33,4.9-17.88.07-.19.36-.1.32.09-.91,5.65-2.81,11.11-3.82,16.77.85-.19,2.25-.58,2.96-.46.19.08-.89,3.95-.91,4.57,0,0,0,.03,0,.07,2.24.61,4.07.17,6.5-1.06.15-.08.27.06.14.18Z"/>
              </g>
              <g>
                <path class="cls-1" d="m79.04,59.75c-4.68-1.08-3.7-13.1-3.7-13.1,0,0-5.71-2.76-6.6-13.84,0,0-5.01,10.39-24.5,6.21,0,0-.73-4.76,2.37-10.13,0,0-2.71,3.63-5.94,10.17,0,0-3.22-16.81,11.29-21.32,5.77-1.79,14.19-.55,26.46,6.97,0,0,3.16-7.47,4.55-6.33,1.39,1.14-2.12,8.08-2.12,8.08,0,0,5.8-1.23,6.65.03.73,1.09-4.84,2.02-4.84,2.02,0,0,8.39,3.54,6.04,13.37-2.15,9.02-7.36,18.41-9.68,17.87Z"/>
                <path class="cls-1" d="m81.12,28.23c5.11.29,9.37,4.42,9.65,9.57.15,2.86-.83,5.83-1.97,8.41-1.25,2.82-3,5.25-4.9,7.66-.11.13-.3-.05-.19-.19,1.75-2.14,3.04-4.7,4.04-7.27.95-2.42,1.84-5.11,1.96-7.72.24-5.18-3.56-9.46-8.63-10.17-.16-.02-.13-.3.03-.29Z"/>
                <path class="cls-1" d="m63.47,16.04c3.27,1,6.44,2.61,9.33,4.43,2.77,1.74,5.45,3.72,7.49,6.3.1.13-.06.31-.19.19-4.62-4.17-10.43-7.13-16.21-9.36-5.41-2.09-11.98-2.68-16.62,1.45-.08.07-.18-.04-.11-.11,4.21-4.39,10.83-4.58,16.31-2.89Z"/>
              </g>
              <g>
                <path class="cls-6" d="m76.61,57.81s6.09-8.29,9.86-6.1c3.78,2.19-.94,14.3-5.47,15.87-4.53,1.57-6.06-2.6-6.06-2.6l1.67-7.17Z"/>
                <path class="cls-1" d="m85.03,55.14c.07,0,.08.1.02.12-3.18,1.2-4.9,4.08-6.13,7.08.96-1.14,2.25-1.75,3.79-.6.08.06,0,.19-.09.17-1.28-.31-2.22-.1-3.11.91-.63.72-1.08,1.63-1.54,2.47-.15.28-.66.12-.54-.21,0-.02.02-.05.03-.07.01-4.02,3.26-9.56,7.58-9.86Z"/>
              </g>
            </g>
          </g>
          <path class="cls-1" d="m47.09,94.33c.01-.05.1-.04.09.01-.51,5.16-1.31,17.15,7.47,16.78,3.54-.15,6.82-2.06,9.56-3.95,2.82-1.94,5.35-4.23,7.65-6.69,2.55-2.73,3.41-4.02,5.27-5.96.11-.12.3.02.21.15-1.91,2.9-2.08,3.57-4.58,6.45-2.4,2.78-5.12,5.34-8.26,7.41-2.94,1.94-6.43,3.84-10.17,3.83-3.56,0-6.08-2.14-7.03-5.23-1.25-4.05-1.03-8.73-.22-12.8Z"/>
        </g>
      </g>
    </g>
  </g>
</svg>